<?xml version="1.0" encoding="utf-8"?><svg xmlns="http://www.w3.org/2000/svg" xmlns:xlink="http://www.w3.org/1999/xlink"><symbol viewBox="0 0 202 133.8" id="decor-border" xmlns="http://www.w3.org/2000/svg"><path d="M1 1h200v131l-20.2-12-19.8 12-20-12-20 12-20-12-20 12-20-12-20 12-20-12-20 12V1z" stroke-width="2"/></symbol><symbol viewBox="0 0 282 133.8" id="decor-border-big" xmlns="http://www.w3.org/2000/svg"><path d="M1 1h280v131l-20.2-12-20.1 12-19.7-12-20 12-20-12-20 12-20-12-20 12-20-12-20 12-20-12-20 12.3-20.5-12.2L1 132V1z"/></symbol><symbol viewBox="0 0 362 102" id="decor-border-bigger" xmlns="http://www.w3.org/2000/svg"><defs><style>.ccls-1{fill:#23100b;stroke:#fff;stroke-width:2px;fill-rule:evenodd}</style></defs><path id="cПрямоугольник_8" data-name="Прямоугольник 8" class="ccls-1" d="M780 5143h360v99.78l-20.81-9.1-19.96 8.24-19.4-8.28-20.08 9.14-19.75-9.14-20 9.14-20-9.14-20 9.14-20-9.14-20 9.14-20-9.14-20 9.14-20-9.14-20.044 9.37-20.459-9.27-19.43 8.29-20.322-8.34-19.745 9.09V5143z" transform="translate(-779 -5142)"/></symbol><symbol viewBox="0 0 322 134.1" id="decor-border-bigger_1" xmlns="http://www.w3.org/2000/svg"><path d="M1 1h320v117l-20 14-20-12-20.8 12.9L241 120l-20 12-20-12-20 12-20-12-20 12-20-12-20 12-20-12-20.1 12-20.4-11.9L21 132 1 118V1z" stroke-width="2"/></symbol><symbol id="footer-logo" viewBox="0 0 420 420" xmlns="http://www.w3.org/2000/svg"><style>.est0{fill:#eb2426}</style><path class="est0" d="M202.2 61.5c-1.6-2.4-3.7-4.4-6.4-5.9s-6.1-2.3-10.2-2.3c-1.6 0-3.2 0-4.8.1s-2.8.2-3.6.3v51.1c.3.1.8.1 1.5.2.7 0 1.4.1 2.2.1s1.6.1 2.3.1 1.3.1 1.6.1c4.2 0 7.7-.7 10.5-2.2s5-3.5 6.6-5.9c1.6-2.5 2.8-5.3 3.4-8.5.7-3.2 1-6.5 1-10 0-3-.3-6-.9-9-.6-3.1-1.7-5.8-3.2-8.2zM71 73.2c2.5-1.9 3.7-5 3.7-9.4 0-3.3-1-5.8-3-7.7s-5-2.8-8.9-2.8c-1.5 0-3 0-4.5.1s-2.6.2-3.4.4V76h6.3c4 0 7.3-.9 9.8-2.8z"/><path class="est0" d="M0 0v420h420V0H0zm105.4 41.2h45.2v13.3h-30.3v17.7h27.5v13.3h-27.5v18.6h30.8v13.3h-45.7V41.2zm-65.6.7c1.7-.3 3.5-.6 5.4-.8 1.9-.3 3.8-.5 5.8-.6 1.9-.1 3.8-.3 5.6-.3 1.8-.1 3.5-.1 5-.1 3.6 0 7.1.3 10.5 1s6.5 1.8 9.3 3.4c2.7 1.6 4.9 3.8 6.5 6.6s2.4 6.3 2.4 10.5c0 6.2-1.5 11.3-4.4 15.2-2.9 3.9-6.8 6.6-11.6 8.2l5.3 3.4L97 117.5H79.9l-17.3-30-7.8-1.4v31.2h-15V41.9zm45.8 157.2c-1.3 2.9-3.2 5.4-5.7 7.3-2.4 2-5.4 3.4-8.8 4.4-3.4.9-7.2 1.4-11.4 1.4-5.4 0-10.2-.5-14.4-1.5-4.1-1-7.2-2-9.1-3L41 195c.8.4 1.8.9 3.1 1.4s2.7 1 4.3 1.4 3.3.8 5.1 1.1 3.6.4 5.5.4c4.4 0 7.8-.7 10.2-2.2 2.4-1.5 3.5-3.8 3.5-6.8 0-2.3-.9-4.2-2.6-5.7s-3.8-2.8-6.4-4-5.4-2.4-8.4-3.7-5.8-2.8-8.4-4.7c-2.6-1.9-4.7-4.2-6.4-6.9-1.7-2.8-2.6-6.3-2.6-10.6 0-3.7.6-6.9 1.9-9.6 1.2-2.7 3-5 5.3-6.8s5-3.2 8.1-4c3.1-.9 6.6-1.3 10.5-1.3 4.4 0 8.6.4 12.5 1.1 3.9.8 7.1 1.9 9.7 3.3l-4.7 12.5c-1.6-1-4-1.9-7.2-2.8-3.2-.8-6.6-1.3-10.3-1.3-3.5 0-6.2.7-8 2.1-1.8 1.4-2.8 3.2-2.8 5.6 0 2.2.9 4 2.6 5.4 1.7 1.5 3.8 2.8 6.4 4 2.6 1.2 5.4 2.5 8.4 3.8s5.8 2.9 8.4 4.7c2.6 1.9 4.7 4.1 6.4 6.9 1.7 2.7 2.6 6.1 2.6 10.2-.1 4.1-.8 7.6-2.1 10.6zm65.7 2.8c-5.6 6.9-13.6 10.3-23.9 10.3-5.5 0-10.3-.9-14.4-2.8s-7.4-4.6-10.1-8.1-4.6-7.7-5.9-12.5c-1.3-4.9-2-10.3-2-16.2 0-12.7 2.8-22.5 8.4-29.3 5.6-6.9 13.6-10.3 23.9-10.3 5.4 0 10.2.9 14.3 2.8 4.1 1.9 7.4 4.6 10.1 8.1 2.7 3.5 4.7 7.7 6 12.5 1.3 4.9 2 10.3 2 16.2.1 12.7-2.7 22.4-8.4 29.3zm64.3-54.2h-30.3v18.8h27.9v13.3h-27.9v30.8h-14.9v-76.2h45.2v13.3zm-2.2-41.4c-3 3.7-7.1 6.7-12 8.9-5 2.2-11.1 3.4-18.5 3.4-1.2 0-2.7 0-4.6-.1-1.9-.1-3.9-.2-6-.3-2.1-.1-4-.2-5.9-.3-1.9-.1-3.3-.2-4.2-.4V41.2c1.5-.2 3.2-.4 5.2-.5 1.9-.1 3.9-.3 5.9-.3 2-.1 4-.1 5.9-.2 1.9 0 3.6-.1 5.2-.1 6.8 0 12.5.9 17.3 2.8 4.8 1.9 8.7 4.5 11.6 7.9 3 3.4 5.2 7.5 6.5 12.2 1.4 4.7 2.1 9.9 2.1 15.6 0 5.2-.7 10.1-2 14.9-1.2 4.8-3.4 9.1-6.5 12.8zm66.4 41.4h-22.2v62.9h-14.9v-62.9h-22.3v-13.3h59.4v13.3z"/><path class="est0" d="M140.3 153.8c-1.3-2.4-3-4.3-5.1-5.6s-4.7-2-7.7-2c-5.3 0-9.4 2.1-12.3 6.4-2.9 4.2-4.4 10.9-4.4 20 0 3.8.3 7.4 1 10.6.7 3.2 1.7 6 3 8.3s3.1 4.1 5.2 5.4c2.1 1.3 4.6 2 7.5 2 5.3 0 9.4-2.1 12.3-6.2 2.9-4.1 4.4-10.8 4.4-20.1 0-3.7-.3-7.1-.9-10.3-.7-3.3-1.7-6.1-3-8.5z"/></symbol><symbol viewBox="0 0 19 18" id="gallery-arrow" xmlns="http://www.w3.org/2000/svg"><path d="M1 8h17c.6 0 1 .4 1 1s-.4 1-1 1H1c-.6 0-1-.4-1-1s.4-1 1-1zM10.7.3l7.9 8c.4.4.4 1 0 1.4s-1 .4-1.4 0l-8-8c-.4-.4-.4-1 0-1.5.5-.3 1.1-.3 1.5.1zm0 17.4l7.9-8c.4-.4.4-1 0-1.4-.4-.4-1-.4-1.4 0l-8 8c-.4.4-.4 1.1 0 1.4.5.4 1.1.4 1.5 0z"/></symbol><symbol viewBox="0 0 360 433.5" id="icon-caravan" xmlns="http://www.w3.org/2000/svg"><path d="M73.4 362.8c-12.9 0-23.4 10.5-23.4 23.4s10.5 23.4 23.4 23.4 23.4-10.5 23.4-23.4-10.4-23.4-23.4-23.4zm0 31.9c-4.6 0-8.4-3.8-8.4-8.4 0-4.6 3.8-8.4 8.4-8.4s8.4 3.8 8.4 8.4c.1 4.6-3.7 8.4-8.4 8.4zm169.7-31.9c-12.9 0-23.4 10.5-23.4 23.4s10.5 23.4 23.4 23.4 23.4-10.5 23.4-23.4-10.5-23.4-23.4-23.4zm0 31.9c-4.6 0-8.4-3.8-8.4-8.4 0-4.6 3.8-8.4 8.4-8.4 4.6 0 8.4 3.8 8.4 8.4 0 4.6-3.8 8.4-8.4 8.4z"/><path d="M352.5 202.4h-18.1c-2 0-3.9.8-5.3 2.2l-23.2 23.2H285v-111h24c2.6 0 4.9-1.3 6.3-3.5s1.6-4.9.5-7.2l-28.4-61.5c-1.2-2.7-3.9-4.4-6.8-4.4h-21.9V7.5c0-4.1-3.4-7.5-7.5-7.5h-186c-4.1 0-7.5 3.4-7.5 7.5v32.8H35.9c-2.9 0-5.6 1.7-6.8 4.4L.7 106.2c-1.1 2.3-.9 5 .5 7.2s3.8 3.5 6.3 3.5h24v111h-24c-4.1 0-7.5 3.4-7.5 7.5v141.2c0 4.1 3.4 7.5 7.5 7.5h18.8c0 .8-.1 1.5-.1 2.3 0 26 21.2 47.2 47.2 47.2 26 0 47.2-21.2 47.2-47.2 0-.8 0-1.5-.1-2.3h75.3c0 .8-.1 1.5-.1 2.3 0 26 21.2 47.2 47.2 47.2s47.2-21.2 47.2-47.2c0-.8 0-1.5-.1-2.3h19c4.1 0 7.5-3.4 7.5-7.5V238.4l21-21h15c4.1 0 7.5-3.4 7.5-7.5s-3.4-7.5-7.5-7.5zM72.8 15h171v45h-171V15zM40.7 55.3h17.1v12.2c0 4.1 3.4 7.5 7.5 7.5h186c4.1 0 7.5-3.4 7.5-7.5V55.3h17.1l21.5 46.5H19.2l21.5-46.5zM238 150.6c0 2.8-2.3 5.2-5.2 5.2s-5.2-2.3-5.2-5.2 2.3-5.2 5.2-5.2 5.2 2.3 5.2 5.2zM46.5 116.8h178.9v15.1c-7.4 3-12.7 10.2-12.7 18.7 0 11.1 9 20.2 20.2 20.2s20.2-9 20.2-20.2c0-8.5-5.3-15.7-12.7-18.7v-15.1H270v111H143v-38.2c0-8.3-5.1-15.4-12.3-18.4v-6c0-4.1-3.4-7.5-7.5-7.5s-7.5 3.4-7.5 7.5v6c-7.2 3-12.3 10.1-12.3 18.4v38.2h-7v-38.2c0-8.3-5.1-15.4-12.3-18.4v-6c0-4.1-3.4-7.5-7.5-7.5s-7.5 3.4-7.5 7.5v6c-7.2 3-12.3 10.1-12.3 18.4v38.2H46.5v-111zm71.9 72.8c0-2.7 2.2-4.8 4.8-4.8s4.8 2.2 4.8 4.8v38.2h-9.7l.1-38.2zm-46.7 0c0-2.7 2.2-4.8 4.8-4.8s4.8 2.2 4.8 4.8v38.2h-9.7l.1-38.2zm229.8 53.2v10.7H15v-10.7h286.5zM73.4 418.5c-17.8 0-32.2-14.5-32.2-32.2s14.4-32.2 32.2-32.2 32.2 14.5 32.2 32.2-14.4 32.2-32.2 32.2zm169.7 0c-17.8 0-32.2-14.5-32.2-32.2s14.5-32.2 32.2-32.2 32.2 14.5 32.2 32.2-14.5 32.2-32.2 32.2zM287 369c-6.9-17.5-24-29.9-43.9-29.9s-37 12.4-43.9 29.9h-81.8c-6.9-17.5-24-29.9-43.9-29.9s-37 12.4-43.9 29.9H15V268.5h286.5V369H287z"/><path d="M224.1 285.3h-13.8c-4.5-3.9-10.4-6.3-16.8-6.3H123c-6.4 0-12.3 2.4-16.8 6.3H92.4c-5.1 0-9.9 2-13.5 5.6-3.6 3.6-5.6 8.4-5.6 13.6 0 10.6 8.6 19.2 19.2 19.2h13.8c4.5 3.9 10.4 6.3 16.8 6.3h70.5c6.4 0 12.3-2.4 16.8-6.3h13.8c5.1 0 10-2 13.5-5.6 3.6-3.6 5.6-8.4 5.6-13.6 0-10.6-8.6-19.2-19.2-19.2zM88.2 304.5c0-1.1.4-2.2 1.2-2.9.5-.5 1.4-1.2 2.9-1.2h5.4a29.663 29.663 0 0 0 0 8.4h-5.4c-2.2-.1-4.1-2-4.1-4.3zM123 315c-5.8 0-10.5-4.7-10.5-10.5S117.2 294 123 294h70.5c5.8 0 10.5 4.7 10.5 10.5s-4.7 10.5-10.5 10.5H123zm104-7.6c-.8.8-1.8 1.2-2.9 1.2h-5.4a29.663 29.663 0 0 0 0-8.4h5.4c2.3 0 4.2 1.9 4.2 4.2 0 1.2-.5 2.2-1.3 3z"/></symbol><symbol viewBox="0 0 96.1 96.1" id="icon-fb" xmlns="http://www.w3.org/2000/svg"><path d="M72.1 0H59.6c-14 0-23.1 9.3-23.1 23.7v10.9H24c-1.1 0-2 .9-2 2v15.8c0 1.1.9 2 2 2h12.5v39.9c0 1.1.9 2 2 2h16.4c1.1 0 2-.9 2-2v-40h14.7c1.1 0 2-.9 2-2V36.5c0-.5-.2-1-.6-1.4s-.9-.6-1.4-.6H56.8v-9.2c0-4.4 1.1-6.7 6.8-6.7H72c1.1 0 2-.9 2-2V2c0-1.1-.8-2-1.9-2z"/></symbol><symbol viewBox="0 0 50.5 50.5" id="icon-forward" xmlns="http://www.w3.org/2000/svg"><path d="M25.3 0C21 0 16.9 1.1 13.2 3.1c-.5.3-.7.9-.4 1.4s.9.7 1.4.4C17.5 3 21.4 2 25.3 2c12.8 0 23.3 10.4 23.3 23.3S38.1 48.5 25.3 48.5 2 38.1 2 25.2C2 19 4.5 13.1 8.9 8.7c.4-.4.4-1 0-1.4-.4-.4-1-.4-1.4 0C2.7 12.1 0 18.4 0 25.2c0 13.9 11.3 25.3 25.3 25.3s25.3-11.3 25.3-25.3S39.2 0 25.3 0z"/><path d="M26.2 34c-.5.3-.6.9-.2 1.4.2.3.5.4.8.4.2 0 .4-.1.6-.2L41 26c.3-.2.4-.5.4-.8s-.2-.6-.4-.8l-13.6-9.6c-.5-.3-1.1-.2-1.4.2-.3.5-.2 1.1.2 1.4l12.4 8.8L26.2 34z"/><path d="M13.1 29.8c.6 0 1-.4 1-1V17.6L25 25.2 12.6 34c-.5.3-.6.9-.2 1.4.2.3.5.4.8.4.2 0 .4-.1.6-.2L27.4 26c.3-.2.4-.5.4-.8s-.2-.6-.4-.8l-13.6-9.6c-.3-.2-.7-.2-1-.1-.3.2-.5.5-.5.9v13.1c-.2.6.3 1.1.8 1.1z"/></symbol><symbol viewBox="0 0 512 512" id="icon-hotdog" xmlns="http://www.w3.org/2000/svg"><path d="M441.7 45.7C430.5 17.9 404 0 374.1 0c-37.5 0-68.5 28.6-72.4 65.2-33.4 3.4-62 26.2-72.7 58.6-16.4 50-55.9 89.5-105.5 105.7-27.1 8.9-48 30.5-56 57.7-1.2 4.3 1.2 8.8 5.5 10 .8.2 1.5.3 2.3.3 3.5 0 6.7-2.3 7.8-5.8 6.4-22.1 23.4-39.6 45.5-46.9 54.5-17.9 97.8-61.2 115.8-116 8.4-25.6 30.6-43.8 56.7-47.4-4.6 122.3-105.5 220.3-228.9 220.3-35.5 0-65.7 25.4-71.7 60.3-.8 4.4 2.2 8.6 6.6 9.3.5.1.9.1 1.4.1 3.9 0 7.3-2.8 8-6.7 4.7-27.2 28.1-46.9 55.8-46.9 135.2 0 245.2-110 245.2-245.2 0-31.2 25.4-56.6 56.6-56.6 23.3 0 43.9 13.9 52.5 35.5 1.7 4.1 6.4 6.2 10.5 4.5 4.2-1.5 6.2-6.2 4.6-10.3z"/><path d="M438.8 64.7c-40.1 0-72.8 32.6-72.8 72.8 0 126.3-102.8 229.1-229.1 229.1-37.2 0-68 28.1-72.2 64.2-24.5-3.2-44.2-22-48.3-46.9-.7-4.4-4.9-7.4-9.3-6.7-4.4.7-7.4 4.9-6.7 9.3 5.4 32.8 31.7 57.2 64.1 60.5 4 36.4 35 65 72.5 65 50.5 0 99.6-9.9 145.8-29.5 44.6-18.9 84.7-45.9 119-80.2 34.4-34.4 61.4-74.4 80.2-119 19.6-46.2 29.5-95.3 29.5-145.8.1-40.2-32.6-72.8-72.7-72.8zM467.2 277c-18.1 42.7-43.9 81-76.8 113.9s-71.2 58.7-113.9 76.8c-44.2 18.7-91.2 28.2-139.5 28.2-31.2 0-56.6-25.4-56.6-56.6 0-31.2 25.4-56.6 56.6-56.6 135.2 0 245.2-110 245.2-245.2 0-31.2 25.4-56.6 56.6-56.6s56.6 25.4 56.6 56.6c0 48.3-9.5 95.2-28.2 139.5z"/><path d="M353.6 62.1c-4.5.1-8.1 3.7-8.1 7.9 0 1.9-.4 3.7-1.1 5.4-.7 1.7-1.8 3.2-3.3 4.5-3.2 2.8-5.6 5.9-7.3 9.2-.8 1.7-1.5 3.4-2 5.2-.6 1.8-1 3.5-1.1 5.3-.4 3.6 0 7.3 1.1 10.9.9 3.6 2.7 7.1 5.2 10.4 2.3 3.1 3.3 6.9 2.4 10.6-.8 3.7-3.1 6.8-6.4 8.8-.9.5-1.7 1.1-2.5 1.6-.8.6-1.7 1.2-2.4 1.8-1.5 1.2-2.9 2.6-4.1 4-1.2 1.4-2.2 3-3.1 4.6-.4.8-.8 1.6-1.1 2.5-.4.8-.7 1.7-1 2.5-1.2 3.4-1.7 7-1.4 10.8.2 1.9.4 3.7.8 5.6.4 1.9 1.1 3.8 1.9 5.7.8 1.8 1.2 3.6 1.2 5.5 0 .9-.1 1.9-.3 2.8-.2.9-.5 1.8-1 2.6-1.7 3.4-4.6 5.9-8.3 7-3.9 1.2-7.6 2.9-10.5 5.1-1.5 1.1-2.9 2.3-4.1 3.7-.6.7-1.2 1.4-1.7 2.1-.6.7-1.1 1.4-1.6 2.2-2 3-3.3 6.4-3.9 10.1-.3 1.9-.6 3.7-.6 5.6 0 1.9.1 3.9.5 6 .3 1.9.3 3.8-.2 5.6-.2.9-.5 1.8-.9 2.6s-1 1.6-1.6 2.3c-2.5 2.9-6 4.6-9.7 4.7-4 .2-8 .9-11.5 2.3-1.7.7-3.4 1.6-4.9 2.6-.8.5-1.5 1-2.2 1.6-.7.6-1.4 1.1-2.1 1.7-2.7 2.4-4.8 5.4-6.3 8.8-.4.9-.7 1.8-1 2.7l-.9 2.7c-.5 1.9-.9 3.8-1 5.9-.1 1.9-.7 3.7-1.6 5.4-.4.8-1 1.6-1.5 2.3-.6.7-1.3 1.4-2 1.9-3.1 2.2-6.9 3-10.6 2.2-2-.4-4-.6-5.9-.7-2-.1-3.9 0-5.8.3-3.7.5-7.2 1.8-10.3 3.7-3.1 1.8-6 4.1-8.3 7.1-2.3 3-4.1 6.6-5.4 10.5-1.1 3.6-3.7 6.5-7.1 8.2-1.7.8-3.5 1.3-5.4 1.2-1.9 0-3.7-.4-5.5-1.2-3.8-1.7-7.7-2.6-11.4-2.7-.9 0-1.9 0-2.8.1-.9 0-1.9.1-2.8.2-1.8.2-3.6.7-5.4 1.3-1.7.6-3.4 1.4-5 2.3-1.6.9-3.1 2.1-4.5 3.3-2.9 2.4-5.4 5.5-7.3 9.2-.9 1.7-2.1 3.2-3.5 4.4-.7.6-1.5 1.1-2.3 1.5-.8.4-1.7.7-2.6.9-3.7.9-7.5.2-10.7-1.9-1.7-1.1-3.5-2.1-5.3-2.8-.9-.4-1.8-.7-2.7-.9-.9-.3-1.9-.6-2.8-.8-3.7-.8-7.5-.9-11.1-.2-1.8.3-3.6.9-5.3 1.6-1.7.7-3.4 1.5-5 2.5-3.2 2-6.1 4.7-8.6 8.1-2.3 3.1-5.6 5.2-9.4 5.5-4.3.4-7.4 4.4-6.9 8.8.4 4.4 4.3 7.7 8.8 7.2 4.1-.3 7.9-1.8 11.3-3.8 3.4-2 6.4-4.8 8.8-8.1 1.2-1.6 2.6-2.9 4.2-3.9s3.3-1.7 5.1-2.1c3.6-.7 7.4 0 10.8 2.3 1.7 1.2 3.5 2.2 5.3 2.9 1.8.7 3.8 1.2 5.7 1.5 3.9.6 8 .5 12-.5 2-.4 3.9-1.2 5.7-2.2 1.8-.9 3.5-2 5-3.3 3.1-2.5 5.7-5.6 7.5-9.2 1.8-3.6 4.8-6.2 8.2-7.4 1.7-.6 3.6-.9 5.5-.8 1.9.1 3.8.6 5.6 1.4 3.7 1.6 7.7 2.5 11.7 2.5 2 0 4-.2 6-.6l1.5-.3c.5-.1 1-.3 1.5-.5 1-.3 1.9-.7 2.9-1.2 3.8-1.8 7.1-4.2 9.7-7.2 1.4-1.4 2.5-3.2 3.4-5 .9-1.8 1.7-3.7 2.3-5.7 1.1-3.9 3.6-6.8 6.8-8.7 3.1-1.9 7-2.6 10.9-1.7 8.1 2.1 16.3 0 23.2-4.8.9-.6 1.7-1.3 2.4-2s1.5-1.5 2.1-2.3c1.3-1.6 2.5-3.2 3.5-5 1-1.8 1.8-3.6 2.3-5.5.6-1.9.9-4 1-6 .2-4.1 1.9-7.6 4.6-10.1.7-.6 1.4-1.1 2.2-1.7.8-.5 1.6-1 2.4-1.3 1.7-.7 3.6-1.1 5.6-1.1 2 0 4.1-.2 6.1-.7 2-.5 4-1 5.7-2 3.6-1.8 6.9-4.4 9.6-7.6.7-.8 1.3-1.6 1.9-2.5l1.5-2.7c.9-1.9 1.6-3.8 2.1-5.7 1-3.9 1.3-7.9.4-12-.8-4 0-7.8 2-10.9.5-.8 1.1-1.5 1.7-2.1.6-.7 1.3-1.3 2-1.9 1.5-1.1 3.2-2 5.2-2.5s3.9-1.3 5.7-2.2c1.8-.9 3.6-2 5.1-3.3 3-2.6 5.6-6 7.4-9.8.5-.9.9-1.9 1.2-2.9.3-1 .6-2 .8-3 .4-2 .6-4.1.6-6.1 0-4.1-.7-8-2.6-11.7-1.8-3.7-1.9-7.6-.7-11.1.3-.9.7-1.7 1.2-2.5.4-.8.9-1.6 1.5-2.3 1.2-1.5 2.6-2.7 4.4-3.7 3.6-2 6.8-4.6 9.2-7.9 2.3-3.3 4-7.1 4.9-11.2 1-4.1.7-8.3-.1-12.2-.9-3.9-2.6-7.6-5.1-10.8-2.6-3.2-3.6-7-3.2-10.6.2-1.8.7-3.6 1.6-5.3.8-1.7 2-3.2 3.5-4.5 3.1-2.7 5.5-5.9 7.2-9.6.4-.9.8-1.8 1.2-2.8.3-1 .5-1.9.7-2.9.4-2 .6-4 .6-6.1.2-4-3.4-7.6-7.9-7.5z"/></symbol><symbol viewBox="0 0 169.1 169.1" id="icon-inst" xmlns="http://www.w3.org/2000/svg"><path d="M122.4 0H46.7C20.9 0 0 20.9 0 46.7v75.8c0 25.7 20.9 46.7 46.7 46.7h75.8c25.7 0 46.7-20.9 46.7-46.7V46.7C169.1 20.9 148.1 0 122.4 0zm31.7 122.4c0 17.5-14.2 31.7-31.7 31.7H46.7c-17.5 0-31.7-14.2-31.7-31.7V46.7C15 29.2 29.2 15 46.7 15h75.8c17.5 0 31.7 14.2 31.7 31.7l-.1 75.7z"/><path d="M84.5 41C60.5 41 41 60.5 41 84.5s19.5 43.6 43.6 43.6 43.6-19.5 43.6-43.6c-.1-24-19.6-43.5-43.7-43.5zm0 72.1c-15.7 0-28.6-12.8-28.6-28.6C56 68.8 68.8 56 84.5 56s28.6 12.8 28.6 28.6c0 15.7-12.8 28.5-28.6 28.5zm45.4-84.8c-2.9 0-5.7 1.2-7.8 3.2-2.1 2-3.2 4.9-3.2 7.8 0 2.9 1.2 5.7 3.2 7.8 2 2 4.9 3.2 7.8 3.2 2.9 0 5.7-1.2 7.8-3.2 2.1-2 3.2-4.9 3.2-7.8 0-2.9-1.2-5.7-3.2-7.8-2-2.1-4.9-3.2-7.8-3.2z"/></symbol><symbol viewBox="0 0 512 512" id="icon-recommended" xmlns="http://www.w3.org/2000/svg"><path d="M392.3 226.1c0-16.2-13.2-29.4-29.4-29.4h-54c13.1-14.8 21.7-31.6 23.4-46.6 1-9.2-1.8-18.3-7.8-25.1-5.5-6.1-12.9-9.6-21-9.7h-.3c-7.8 0-15.2 3-20.7 8.5s-8.6 12.8-8.7 20.6c-.3 1.7-3.3 7.6-10.7 14.6-6 5.7-16.4 13.6-31.8 18.6-6 2-11.5 5.6-16.4 10.7-2.5 2.7-6.3 6.4-11 10.2-2.3-1.2-4.9-1.9-7.7-1.9h-51.3c-9.1 0-16.6 7.4-16.6 16.6V350c0 9.1 7.4 16.6 16.6 16.6h51.3c6.2 0 11.7-3.5 14.5-8.6h130.9c13.9 0 25.1-11.3 25.1-25.1 0-4.7-1.3-9-3.5-12.8 7.2-4.4 12-12.4 12-21.4 0-4.7-1.3-9-3.5-12.8 7.2-4.4 12-12.4 12-21.4 0-5.2-1.6-10.1-4.4-14.1 7.9-5.3 13-14.2 13-24.3zm-29.4 13.3h-4.3c-4.4 0-8 3.6-8 8s3.6 8 8 8c5 0 9.1 4.1 9.1 9.1s-4.1 9.1-9.1 9.1H350c-4.4 0-8 3.6-8 8s3.6 8 8 8c5 0 9.1 4.1 9.1 9.1s-4.1 9.1-9.1 9.1h-8.6c-4.4 0-8 3.6-8 8s3.6 8 8 8c5 0 9.1 4.1 9.1 9.1s-4.1 9.1-9.1 9.1H212.7v-77.5c0-4.4-3.6-8-8-8s-8 3.6-8 8V350c0 .3-.2.5-.5.5h-51.3c-.3 0-.5-.2-.5-.5V213.2c0-.3.2-.5.5-.5h51.3c.3 0 .5.2.5.5v17.1c0 4.4 3.6 8 8 8s8-3.6 8-8v-17.1c0-.4 0-.8-.1-1.2 6-4.7 10.8-9.4 14-12.7 3-3.2 6.2-5.3 9.6-6.4 18.9-6.1 31.6-16 38.9-23.2 9.2-9 14.7-18.4 14.7-25.2 0-3.6 1.4-6.9 3.9-9.4s5.9-3.9 9.6-3.9c4.5 0 7.5 2.3 9.2 4.3 2.9 3.3 4.4 8 3.9 12.7-1.8 15.9-14.5 35.6-32.5 50.2-2.6 2.1-3.6 5.7-2.5 8.9s4.2 5.3 7.6 5.3h74c7.4 0 13.4 6 13.4 13.4s-6.1 13.4-13.5 13.4z"/><path d="M170.5 316.3c-4.4 0-8.1 3.6-8.1 8.1s3.6 8.1 8.1 8.1 8.1-3.6 8.1-8.1c-.1-4.5-3.7-8.1-8.1-8.1z"/><path d="M497.7 256l13.8-36.4c1-2.7.5-5.6-1.2-7.8l-24.4-30.4 1.8-38.9c.1-2.8-1.2-5.5-3.6-7.1L451.5 114l-10.3-37.6c-.7-2.7-2.9-4.9-5.6-5.6L398 60.5l-21.4-32.6c-1.6-2.4-4.2-3.7-7.1-3.6l-38.9 1.8-30.3-24.3c-2.2-1.8-5.2-2.2-7.8-1.2L256 14.3 219.6.5c-2.7-1-5.6-.5-7.8 1.2l-30.4 24.4-38.9-1.8c-2.8-.1-5.5 1.2-7.1 3.6L114 60.5 76.3 70.7c-2.7.7-4.9 2.9-5.6 5.6l-10.3 37.6-32.6 21.4c-2.4 1.6-3.7 4.2-3.6 7.1l1.8 38.9-24.2 30.4c-1.8 2.2-2.2 5.2-1.2 7.8L14.3 256 .5 292.4c-1 2.7-.5 5.6 1.2 7.8l24.4 30.4-1.8 38.9c-.1 2.8 1.2 5.5 3.6 7.1L60.5 398l10.3 37.6c.7 2.7 2.9 4.9 5.6 5.6l37.6 10.3 21.4 32.6c1.6 2.4 4.3 3.7 7.1 3.6l38.9-1.8 30.4 24.4c2.2 1.8 5.2 2.2 7.8 1.2l36.4-13.8 36.4 13.8c.9.3 1.9.5 2.8.5 1.8 0 3.6-.6 5-1.8l30.4-24.4 38.9 1.8c2.8.1 5.5-1.2 7.1-3.6l21.4-32.6 37.6-10.3c2.7-.7 4.9-2.9 5.6-5.6l10.3-37.6 32.6-21.4c2.4-1.6 3.7-4.2 3.6-7.1l-1.8-38.9 24.4-30.4c1.8-2.2 2.2-5.2 1.2-7.8L497.7 256zm-16.1 2.8l13.2 35-23.3 29.2c-1.2 1.5-1.8 3.4-1.8 5.4l1.8 37.4-31.3 20.5c-1.6 1.1-2.8 2.7-3.3 4.6L427 427l-36.1 9.9c-1.9.5-3.5 1.7-4.6 3.3l-20.5 31.3-37.4-1.8c-2-.1-3.9.5-5.4 1.8l-29.2 23.4-35-13.2c-.9-.3-1.9-.5-2.8-.5s-1.9.2-2.8.5l-35 13.2-29.2-23.4c-1.5-1.2-3.4-1.8-5.4-1.8l-37.4 1.8-20.5-31.3c-1.1-1.6-2.7-2.8-4.6-3.3L85 427l-9.9-36.1c-.5-1.9-1.7-3.5-3.3-4.6l-31.3-20.5 1.8-37.4c.1-2-.5-3.9-1.8-5.4l-23.4-29.2 13.2-35c.7-1.8.7-3.8 0-5.7l-13.2-35L40.5 189c1.2-1.5 1.8-3.4 1.8-5.4l-1.8-37.4 31.3-20.5c1.6-1.1 2.8-2.7 3.3-4.6L85 85l36.1-9.9c1.9-.5 3.5-1.7 4.6-3.3l20.5-31.3 37.4 1.8c1.9.1 3.9-.5 5.4-1.8l29.2-23.4 35 13.2c1.8.7 3.8.7 5.7 0l35-13.2L323 40.5c1.5 1.2 3.4 1.8 5.4 1.8l37.4-1.8 20.5 31.3c1.1 1.6 2.7 2.8 4.6 3.3L427 85l9.9 36.1c.5 1.9 1.7 3.5 3.3 4.6l31.3 20.5-1.8 37.4c-.1 2 .5 3.9 1.8 5.4l23.4 29.2-13.2 35c-.7 1.8-.7 3.8-.1 5.6z"/><path d="M406.6 117.6c-2-2.2-4.1-4.3-6.2-6.4s-4.2-4.2-6.4-6.2c-3.3-3-8.3-2.8-11.3.5s-2.8 8.3.5 11.3c2 1.8 4 3.8 5.9 5.7 1.9 1.9 3.8 3.9 5.7 5.9 1.6 1.7 3.7 2.6 5.9 2.6 1.9 0 3.9-.7 5.4-2.1 3.3-3 3.5-8.1.5-11.3zm-41-34.5c-38.7-24.6-85.2-35.6-131.1-30.8C188 57.1 144.1 78 111 111.2c-36.5 36.5-57.7 84.9-59.8 136.4-2.1 51.2 14.9 100.9 47.7 140 1.6 1.9 3.9 2.9 6.1 2.9 1.8 0 3.7-.6 5.2-1.9 3.4-2.9 3.8-7.9 1-11.3-30.3-36-45.9-81.8-44-129 1.9-47.5 21.5-92.1 55.1-125.7 30.5-30.5 71-49.8 113.8-54.2 42.3-4.4 85.2 5.7 120.8 28.4 3.7 2.4 8.7 1.3 11.1-2.5 2.4-3.8 1.3-8.8-2.4-11.2zm62.9 62.9c-2.4-3.7-7.3-4.8-11.1-2.5-3.7 2.4-4.8 7.3-2.5 11.1 22.7 35.6 32.8 78.5 28.4 120.8-4.4 42.9-23.7 83.3-54.2 113.8-33.6 33.6-78.3 53.2-125.7 55.1-47.2 1.9-93-13.7-129-44-3.4-2.9-8.4-2.4-11.3 1-2.9 3.4-2.4 8.4 1 11.3 36.9 31.1 83.4 47.9 131.6 47.9 2.8 0 5.6-.1 8.4-.2 51.5-2.1 99.9-23.3 136.4-59.8 33.1-33.1 54-77 58.9-123.5 4.7-45.8-6.3-92.3-30.9-131z"/></symbol><symbol viewBox="0 0 512 463.3" id="icon-vegetables" xmlns="http://www.w3.org/2000/svg"><path d="M280.5 116.7c9.5-6.7 18.3-17.8 20.6-36.1.4-3.1-.9-6.1-3.3-8-2.4-1.9-5.7-2.3-8.5-1.2-.1 0-10.4 4.2-23.3 6.9-4.7 1-7.7 5.6-6.7 10.3 1 4.7 5.6 7.7 10.3 6.7 3.5-.7 6.7-1.5 9.7-2.4-3.6 6.3-9.2 10.9-16.9 13.9-10.1 3.9-20.1 3.4-20.2 3.4-2.8-.2-5.5.9-7.3 3.1-1.8 2.1-2.4 5-1.8 7.7 4.8 18.9 16.9 33.5 27.6 43.2-40.6-.1-55.2-21.2-55.8-22.2-1.8-2.8-4.9-4.3-8.2-4-3.3.3-6.1 2.5-7.2 5.6-4.3 11.5-11.6 20.8-21.7 27.5-4 2.7-5.1 8-2.4 12 1.7 2.5 4.4 3.9 7.2 3.9 1.7 0 3.3-.5 4.8-1.5 9.4-6.3 17-14.2 22.6-23.7 12.8 10.9 39.3 25.2 85.8 17.7 3.7-.6 6.5-3.4 7.2-7.1.6-3.6-1.1-7.3-4.4-9.1-.3-.1-24.1-13.5-34.9-36.5 2.8-.4 5.9-1 9.2-1.9 37.8 28.4 60.3 73.1 60.3 120.4 0 4.8 3.9 8.7 8.7 8.7s8.7-3.9 8.7-8.7c-.1-49.8-22.3-96.9-60.1-128.6z"/><path d="M494.5 280.7c-12.5-7.2-28.2-6.8-35.8.7-3.4 3.4-3.4 8.9 0 12.3 3.4 3.4 8.8 3.4 12.2.1 1.9-1.3 9.8-1.5 16.3 2.9 7 4.7 9.1 12.6 6.3 23.5-2.6 10-11.1 16.2-21.1 20-7.3-37.1-35.6-66.2-72.7-74.6-4.7-1-9.3 1.9-10.4 6.6-1 4.7 1.9 9.3 6.6 10.4 30.6 6.9 54 31.2 59.7 62-8.2 1.3-15.8 1.6-20 1.6-.1-6.2.7-10.2.8-10.4 1-4.7-1.9-9.3-6.6-10.3-4.7-1-9.3 1.9-10.4 6.6-.2 1-5.4 25.1 7.6 51.5 1.5 3.1 4.6 4.8 7.8 4.8 1.3 0 2.6-.3 3.8-.9 4.3-2.1 6.1-7.3 3.9-11.6-2.1-4.2-3.6-8.4-4.6-12.3 4.8-.1 11.7-.4 19.3-1.6-.3 16.3-5.6 32.1-15.7 45.4-13.2 17.5-32.5 28.4-54.3 30.8-99.5 10.7-200.4 10.7-299.9 0-21.8-2.3-41.1-13.3-54.3-30.8-13.1-17.4-18.3-38.8-14.5-60.3l.3-1.7c7-40.4 44.6-68.6 85.3-64.2 88.3 9.5 177.9 9.5 266.2 0 4.8-.5 8.2-4.8 7.7-9.6-.5-4.8-4.8-8.2-9.6-7.7-87.1 9.4-175.4 9.4-262.5 0-29.2-3.1-57.1 7.4-76.8 26.6-4.6-14.5-6.9-29.6-6.9-45.1 0-23.3 5.2-45.5 15.3-66.2 2.1-4.3.3-9.5-4-11.6-4.3-2.1-9.5-.3-11.6 4C10.8 194.5 5 219.3 5 245.3c0 20.9 3.8 41.3 11.3 60.6-7.1 10.7-12.2 22.9-14.5 36.3l-.3 1.7c-4.6 26.3 1.7 52.4 17.8 73.7 15.9 21.1 40 34.8 66.3 37.6 50.4 5.4 101.1 8.1 151.8 8.1s101.4-2.7 151.8-8.1c26.3-2.8 50.4-16.5 66.3-37.6 13.2-17.5 19.8-38.4 19.2-59.9 15.8-5.2 31-14.9 35.8-33.4 4.7-18.9-1.2-35.2-16-43.6z"/><path d="M92.6 327.8c-2-3.1-6-4.5-9.5-3.5-3.4 1-6 4-6.3 7.5-.8 7.9 9.2 12.6 14.8 7 2.9-2.9 3.3-7.6 1-11zm29 48.6c-1.9-2.8-5.4-4.3-8.7-3.7-3.7.7-6.6 3.7-7.1 7.5-1 7.8 8.5 12.7 14.4 7.6 3.1-2.9 3.7-7.8 1.4-11.4zm65.9-69.4c-4.3-6.5-14.7-4.1-15.8 3.5-.5 3.7 1.4 7.4 4.8 9.1 3.2 1.5 7.1 1 9.7-1.4 3.1-2.9 3.6-7.7 1.3-11.2zM213 418c-2.2-3.3-6.5-4.7-10.1-3.3-3.3 1.2-5.6 4.3-5.8 7.8-.3 7.7 9.4 12 14.8 6.5 2.9-2.9 3.3-7.6 1.1-11zm55.5-63.6c-4.3-6.5-14.6-4.1-15.8 3.5-1.2 7.9 8.6 13.1 14.5 7.7 3.1-2.9 3.6-7.7 1.3-11.2zm37.7 43.1c-3.5-1.5-7.7-.4-10 2.5-2.3 2.8-2.6 6.7-.7 9.9 1.8 3.1 5.6 4.9 9.2 4.1 3.5-.7 6.2-3.5 6.9-7 .6-4-1.7-8-5.4-9.5zm76.6-96.6c-3.6 2.2-5.1 6.8-3.5 10.7 1.4 3.4 5 5.7 8.7 5.3 3.6-.3 6.7-2.9 7.6-6.3 2.2-7.4-6.2-13.7-12.8-9.7zm-6.7 70.9c-2.1-3.1-6.1-4.6-9.7-3.5-3.5 1.1-6 4.2-6.2 7.9-.4 7.7 9.2 12 14.7 6.7 3-3 3.5-7.7 1.2-11.1zM243.9 80.5c-7.5-.3-14.1-5.6-16-12.8-4.8-18-18.2-26.5-18.7-26.9-2.7-1.7-6.1-1.8-8.8-.2-2.8 1.5-4.5 4.4-4.5 7.6 0 4.2-4.4 10.2-9.9 15.9-6.5-19.5-17.9-41.8-37.7-61.6-3.4-3.4-8.9-3.4-12.3 0s-3.4 8.9 0 12.3c18.5 18.5 28.8 39.9 34.4 58.1-14.2-7.6-24.2-26.9-27.1-34.7-1-2.8-3.4-4.8-6.3-5.4-2.9-.6-5.9.3-8 2.3-14.7 14.7-13.1 39.4-10.9 52.2-8.7 1.8-25.1 2.5-42.6-10.3-2.7-2-6.2-2.2-9.2-.7-2.9 1.6-4.7 4.7-4.6 8 0 .8.6 14.3 7.9 28.6-13.5 10.5-25.2 22.9-34.9 37-2.7 3.9-1.7 9.3 2.2 12.1 1.5 1 3.2 1.5 4.9 1.5 2.8 0 5.5-1.3 7.1-3.7 8.5-12.3 18.7-23.2 30.4-32.5 1.8 2 3.8 3.9 6 5.8 12.4 10.4 28.5 15.5 48 15.1-5.1 9.1-15.1 22.7-34.7 37.5-2.8 2.1-4.1 5.7-3.1 9.2.9 3.4 3.8 5.9 7.3 6.4.4.1 5.3.7 12.9.7 8.8 0 21.1-.8 34-4.3 4.6-1.2 7.4-6 6.1-10.6-1.2-4.6-6-7.4-10.6-6.1-6.3 1.7-12.5 2.6-18 3.1 24.1-23.9 27.9-43 28.1-44 .5-2.7-.3-5.6-2.3-7.6-1.9-2-4.7-3-7.5-2.6-21.1 3-37.5-.4-48.9-9.9-6.7-5.6-10.8-12.6-13.4-19 26.3 10.2 47.6.7 48.7.2 3.9-1.8 5.9-6.1 4.7-10.2-.1-.2-4.5-16.9-1.6-30.7 7.5 12.5 20.4 28.3 38.8 32.3.5.1.9.2 1.4.2 2.3 13.2 2.2 21.9 2.2 22.2-.1 4.8 3.6 8.8 8.4 8.9h.3c4.7 0 8.5-3.7 8.7-8.4 0-1.2.3-14.1-3.6-32.3 5.7-4.9 12.3-11.4 16.8-18.6 1.3 2.2 2.4 4.8 3.2 7.8 3.9 14.7 16.8 25 32.1 25.7 4.8.2 8.8-3.5 9-8.3.1-5-3.6-9.1-8.4-9.3z"/></symbol><symbol viewBox="0 0 512 512" id="icon-world" xmlns="http://www.w3.org/2000/svg"><path d="M256 36.7C135 36.7 36.7 135 36.7 256S135 475.3 256 475.3 475.3 376.9 475.3 256 376.9 36.7 256 36.7zm191.9 155.7h-13.5c-4.2 0-8.3 1-12 2.8l-4.9 2.5c-3.1 1.6-6.9 1.3-9.8-.6L389 184.7c-1.4-.9-3.1-1.4-4.8-1.4H382l6.4-9.5c.3-.5.9-.8 1.4-.8h13.4v3.7c0 4.7 3.8 8.6 8.6 8.6 4.2 0 7.7-3.1 8.5-7.1l3.1 1.6c3.1 1.5 6.5 2.4 10 2.4h10.8c1.3 3.3 2.5 6.7 3.7 10.2zm-64.2-79.2c0-.2.1-.3.2-.4l6.5-6.5c.2-.2.4-.4.6-.7 3.8 3.4 7.4 6.9 11 10.6l-5.4 5.4c-3.4 3.4-3.4 8.8 0 12.1 1.7 1.7 3.9 2.5 6.1 2.5s4.4-.8 6.1-2.5l4.6-4.6c8.9 11 16.7 23 23.2 35.8h-3.1c-.8 0-1.6-.2-2.3-.5l-13.2-6.6c-2.6-1.3-5.5-2-8.5-2H390c-6.3 0-12.2 3.1-15.7 8.4l-12.7 19.1h-8c-3.5 0-6.3-2.8-6.3-6.3v-15.2c0-.2.2-.5.4-.5l16.8-5.6c4.2-1.4 8-3.8 11.1-6.9 5.4-5.4 8.4-12.5 8.4-20.2l-.3-15.4zM121 105.6c.2.2.4.5.6.7l9.2 9.2c1.6 1.6 3.8 2.5 6.1 2.5s4.5-.9 6.1-2.5l13-13c1.8-1.8 4.3-2.9 6.9-2.9h11.3v.6c0 3 1.5 5.7 4.1 7.3 2.5 1.6 5.7 1.7 8.4.4l15-7.5c1-.5 2.1-.8 3.2-.8h30.6c-3.4 2.2-5.7 5.7-6.4 9.8-1 5.8 1.4 11.5 6.4 14.8l11.8 7.9c.2.1.3.3.3.5v4.3c0 .3-.3.6-.6.6h-3.9c-5.7 0-11 2.2-15 6.2l-57.8 57.8c-.1.1-.3.2-.4.2h-14.5c-14.8 0-26.9 12.1-26.9 26.9v4.2l-9.5-1.9c-2.3-.5-4.2-1.9-5.2-4l-5.7-11.3c-1.5-2.9-4.4-4.8-7.7-4.8h-5.1c-4.2 0-7.9-2.7-9.2-6.7l-12-35.9c11.3-23.8 27.4-45.1 46.9-62.6zm135 352.5c-111.5 0-202.2-90.7-202.2-202.2 0-22.1 3.6-43.3 10.1-63.2l5.6 16.8c3.6 10.9 13.8 18.3 25.3 18.4l3.3 6.6c3.4 6.8 9.7 11.6 17.2 13.1l32.8 6.6c1.8.4 3.5 1.3 4.8 2.6 2.7 2.7 5.8 4.7 9.2 6l-6 18c-.3.9-.4 1.8-.4 2.7v18.3c0 8.4 4 16.5 10.8 21.5l22 16.5c2.4 1.8 3.9 4.7 3.9 7.8V397c0 5.3 1.6 10.5 4.5 14.9l13.2 19.8c2.9 4.3 7.7 6.9 12.9 6.9h3.2c6 0 10.9-4.9 10.9-10.9V412c0-3.8 1.5-7.4 4.2-10.1l17-17c3.4-3.4 6.1-7.7 7.6-12.3l5.4-16.1c.1-.2.3-.4.5-.4h4.6c8.2 0 15.2-5.5 17.2-13.4l6.2-24.7c1.5-6-.3-12.5-4.7-16.9l-12-12c-3.4-3.4-7.8-5.2-12.6-5.2h-11L228 252.4c-3.4-3.4-7.8-5.2-12.6-5.2h-43.7c-2.5 0-4.9-1-6.7-2.8-3.7-3.7-8.4-6.3-13.6-7.3l-6.1-1.2v-7.6c0-5.4 4.4-9.7 9.7-9.7h9.7v.6c0 4.7 3.8 8.6 8.6 8.6s8.6-3.8 8.6-8.6v-5.6l.2-.2 57.8-57.8c.8-.8 1.8-1.2 2.8-1.2h3.9c9.8 0 17.8-8 17.8-17.8v-4.3c0-5.9-3-11.5-7.9-14.8l-7.3-4.8 13.9-3.5c6.1-1.5 10.4-7 10.4-13.3 0-7.6-6.2-13.7-13.7-13.7h-55.3c-3.8 0-7.5.9-10.9 2.6l-5.7 2.8c-2.6-3.3-6.7-5.4-11.2-5.4h-14.2c-7.2 0-13.9 2.8-19 7.9l-6.9 6.9-2.6-2.6c33.9-25.6 76-40.8 121.7-40.8s88.1 15.4 122 41.1l-6 6c-3.4 3.4-5.2 7.8-5.2 12.6v15.4c0 3-1.2 5.9-3.3 8-1.2 1.2-2.8 2.2-4.4 2.7L342 145c-7.3 2.4-12.1 9.2-12.1 16.8V177c0 4.3 1.2 8.4 3.2 11.9-3.5 2.3-6.5 5.4-8.9 9l-8.1 12.2c-3 4.4-4.5 9.6-4.5 14.9v16.4c0 5.3 1.6 10.5 4.5 14.9l9.8 14.7c5 7.5 13.4 12 22.4 12h22.8c4.2 0 7.9 2.7 9.2 6.7l2 6.1c1.7 5 2.5 10.2 2.5 15.4v6.5c0 8.6 1.2 17.1 3.5 25.3l14.7 51.6c-36.8 39-89.1 63.5-147 63.5zm-57.2-132l-22-16.5c-2.4-1.8-3.9-4.7-3.9-7.8v-16.9l6.8-20.3h35.8c.2 0 .3.1.4.2l34 34c1.6 1.6 3.8 2.5 6.1 2.5h14.5c.2 0 .3.1.4.2l12 12c.1.1.2.4.2.5l-6.2 24.7c-.1.3-.3.4-.6.4h-4.6c-7.7 0-14.4 4.9-16.8 12.1l-5.4 16.1c-.7 2.1-1.9 4-3.5 5.6l-17 17c-5.9 5.9-9.2 13.9-9.2 22.3v3.4l-8.7-13c-1.1-1.6-1.6-3.5-1.6-5.4v-49.4c.1-8.6-3.9-16.7-10.7-21.7zm206.1 12.1c-1.9-6.7-2.9-13.6-2.9-20.6v-6.5c0-7.1-1.1-14.1-3.4-20.8l-2-6.1c-3.7-11-13.9-18.4-25.5-18.4h-22.8c-3.3 0-6.3-1.6-8.1-4.3l-9.8-14.7c-1.1-1.6-1.6-3.5-1.6-5.4V225c0-1.9.6-3.8 1.6-5.4l8.1-12.2c2.9-4.3 7.7-6.9 12.9-6.9h30.3l16.5 11c8 5.3 18.4 6 27 1.7l4.9-2.5c1.3-.7 2.9-1 4.4-1h18.4c3.5 14.9 5.4 30.4 5.4 46.4 0 46.1-15.5 88.7-41.6 122.8l-11.8-40.7z"/><path d="M88.1 75.9s-.1-.1 0 0c-3.5-3.5-9-3.5-12.3-.1-3.4 3.4-3.4 8.9 0 12.2l.1.1c1.7 1.6 3.8 2.4 6 2.4s4.3-.8 6-2.4l.2-.2c3.2-3.3 3.2-8.7 0-12zm-6.2-39.2C57 36.7 36.7 57 36.7 81.9c0 4.7 3.8 8.6 8.6 8.6s8.6-3.8 8.6-8.6c0-15.5 12.6-28.1 28.1-28.1 4.7 0 8.6-3.8 8.6-8.6s-4-8.5-8.7-8.5z"/><path d="M81.9 0C36.7 0 0 36.7 0 81.9c0 4.7 3.8 8.6 8.6 8.6s8.6-3.8 8.6-8.6c0-35.7 29-64.7 64.7-64.7 4.7 0 8.6-3.8 8.6-8.6S86.6 0 81.9 0zm354.3 424s-.1-.1 0 0c-3.4-3.3-8.8-3.3-12.1-.1l-.2.2c-3.2 3.3-3.2 8.7 0 12l.1.1c1.7 1.7 3.9 2.5 6.1 2.5s4.4-.8 6.1-2.5c3.4-3.3 3.4-8.8 0-12.2zm30.6-2.5c-4.7 0-8.6 3.8-8.6 8.6 0 15.5-12.6 28.1-28.1 28.1-4.7 0-8.6 3.8-8.6 8.6s3.8 8.6 8.6 8.6c24.9 0 45.2-20.3 45.2-45.2 0-4.8-3.8-8.7-8.5-8.7z"/><path d="M503.4 421.5c-4.7 0-8.6 3.8-8.6 8.6 0 35.7-29 64.7-64.7 64.7-4.7 0-8.6 3.8-8.6 8.6s3.8 8.6 8.6 8.6c45.2 0 81.9-36.7 81.9-81.9 0-4.7-3.8-8.6-8.6-8.6zM217.9 114.7c-2.1-4.2-7.3-6-11.5-3.8L188 120c-4.2 2.1-6 7.3-3.8 11.5 1.5 3 4.5 4.8 7.7 4.8 1.3 0 2.6-.3 3.8-.9l18.3-9.2c4.3-2.1 6-7.3 3.9-11.5zm129.7-13.9c-4.7 0-8.6 3.8-8.6 8.6v9.2c0 4.7 3.8 8.6 8.6 8.6 4.7 0 8.6-3.8 8.6-8.6v-9.2c0-4.8-3.8-8.6-8.6-8.6z"/></symbol></svg>