<?xml version="1.0" encoding="utf-8"?>
<!-- Generator: Adobe Illustrator 20.1.0, SVG Export Plug-In . SVG Version: 6.00 Build 0)  -->
<svg version="1.1" id="Layer_1" xmlns="http://www.w3.org/2000/svg" xmlns:xlink="http://www.w3.org/1999/xlink" x="0px" y="0px"
	 viewBox="0 0 420 420" style="enable-background:new 0 0 420 420;" xml:space="preserve">
<style type="text/css">
	.st0{fill:#EB2426;}
</style>
<g>
	<path class="st0" d="M202.2,61.5c-1.6-2.4-3.7-4.4-6.4-5.9s-6.1-2.3-10.2-2.3c-1.6,0-3.2,0-4.8,0.1s-2.8,0.2-3.6,0.3v51.1
		c0.3,0.1,0.8,0.1,1.5,0.2c0.7,0,1.4,0.1,2.2,0.1s1.6,0.1,2.3,0.1s1.3,0.1,1.6,0.1c4.2,0,7.7-0.7,10.5-2.2s5-3.5,6.6-5.9
		c1.6-2.5,2.8-5.3,3.4-8.5c0.7-3.2,1-6.5,1-10c0-3-0.3-6-0.9-9C204.8,66.6,203.7,63.9,202.2,61.5z"/>
	<path class="st0" d="M71,73.2c2.5-1.9,3.7-5,3.7-9.4c0-3.3-1-5.8-3-7.7s-5-2.8-8.9-2.8c-1.5,0-3,0-4.5,0.1s-2.6,0.2-3.4,0.4V76h6.3
		C65.2,76,68.5,75.1,71,73.2z"/>
	<path class="st0" d="M0,0v420h420V0H0z M105.4,41.2h45.2v13.3h-30.3v17.7h27.5v13.3h-27.5v18.6h30.8v13.3h-45.7
		C105.4,117.4,105.4,41.2,105.4,41.2z M39.8,41.9c1.7-0.3,3.5-0.6,5.4-0.8c1.9-0.3,3.8-0.5,5.8-0.6c1.9-0.1,3.8-0.3,5.6-0.3
		c1.8-0.1,3.5-0.1,5-0.1c3.6,0,7.1,0.3,10.5,1s6.5,1.8,9.3,3.4c2.7,1.6,4.9,3.8,6.5,6.6s2.4,6.3,2.4,10.5c0,6.2-1.5,11.3-4.4,15.2
		c-2.9,3.9-6.8,6.6-11.6,8.2l5.3,3.4L97,117.5H79.9l-17.3-30l-7.8-1.4v31.2h-15V41.9z M85.6,199.1c-1.3,2.9-3.2,5.4-5.7,7.3
		c-2.4,2-5.4,3.4-8.8,4.4c-3.4,0.9-7.2,1.4-11.4,1.4c-5.4,0-10.2-0.5-14.4-1.5c-4.1-1-7.2-2-9.1-3L41,195c0.8,0.4,1.8,0.9,3.1,1.4
		s2.7,1,4.3,1.4s3.3,0.8,5.1,1.1s3.6,0.4,5.5,0.4c4.4,0,7.8-0.7,10.2-2.2c2.4-1.5,3.5-3.8,3.5-6.8c0-2.3-0.9-4.2-2.6-5.7
		s-3.8-2.8-6.4-4s-5.4-2.4-8.4-3.7s-5.8-2.8-8.4-4.7c-2.6-1.9-4.7-4.2-6.4-6.9c-1.7-2.8-2.6-6.3-2.6-10.6c0-3.7,0.6-6.9,1.9-9.6
		c1.2-2.7,3-5,5.3-6.8s5-3.2,8.1-4c3.1-0.9,6.6-1.3,10.5-1.3c4.4,0,8.6,0.4,12.5,1.1c3.9,0.8,7.1,1.9,9.7,3.3l-4.7,12.5
		c-1.6-1-4-1.9-7.2-2.8c-3.2-0.8-6.6-1.3-10.3-1.3c-3.5,0-6.2,0.7-8,2.1c-1.8,1.4-2.8,3.2-2.8,5.6c0,2.2,0.9,4,2.6,5.4
		c1.7,1.5,3.8,2.8,6.4,4c2.6,1.2,5.4,2.5,8.4,3.8s5.8,2.9,8.4,4.7c2.6,1.9,4.7,4.1,6.4,6.9c1.7,2.7,2.6,6.1,2.6,10.2
		C87.6,192.6,86.9,196.1,85.6,199.1z M151.3,201.9c-5.6,6.9-13.6,10.3-23.9,10.3c-5.5,0-10.3-0.9-14.4-2.8
		c-4.1-1.9-7.4-4.6-10.1-8.1s-4.6-7.7-5.9-12.5c-1.3-4.9-2-10.3-2-16.2c0-12.7,2.8-22.5,8.4-29.3c5.6-6.9,13.6-10.3,23.9-10.3
		c5.4,0,10.2,0.9,14.3,2.8c4.1,1.9,7.4,4.6,10.1,8.1c2.7,3.5,4.7,7.7,6,12.5c1.3,4.9,2,10.3,2,16.2C159.8,185.3,157,195,151.3,201.9
		z M215.6,147.7h-30.3v18.8h27.9v13.3h-27.9v30.8h-14.9v-76.2h45.2V147.7z M213.4,106.3c-3,3.7-7.1,6.7-12,8.9
		c-5,2.2-11.1,3.4-18.5,3.4c-1.2,0-2.7,0-4.6-0.1c-1.9-0.1-3.9-0.2-6-0.3c-2.1-0.1-4-0.2-5.9-0.3c-1.9-0.1-3.3-0.2-4.2-0.4V41.2
		c1.5-0.2,3.2-0.4,5.2-0.5c1.9-0.1,3.9-0.3,5.9-0.3c2-0.1,4-0.1,5.9-0.2c1.9,0,3.6-0.1,5.2-0.1c6.8,0,12.5,0.9,17.3,2.8
		c4.8,1.9,8.7,4.5,11.6,7.9c3,3.4,5.2,7.5,6.5,12.2c1.4,4.7,2.1,9.9,2.1,15.6c0,5.2-0.7,10.1-2,14.9
		C218.7,98.3,216.5,102.6,213.4,106.3z M279.8,147.7h-22.2v62.9h-14.9v-62.9h-22.3v-13.3h59.4V147.7z"/>
	<path class="st0" d="M140.3,153.8c-1.3-2.4-3-4.3-5.1-5.6s-4.7-2-7.7-2c-5.3,0-9.4,2.1-12.3,6.4c-2.9,4.2-4.4,10.9-4.4,20
		c0,3.8,0.3,7.4,1,10.6c0.7,3.2,1.7,6,3,8.3s3.1,4.1,5.2,5.4c2.1,1.3,4.6,2,7.5,2c5.3,0,9.4-2.1,12.3-6.2c2.9-4.1,4.4-10.8,4.4-20.1
		c0-3.7-0.3-7.1-0.9-10.3C142.6,159,141.6,156.2,140.3,153.8z"/>
</g>
</svg>
