<?xml version="1.0" encoding="utf-8"?>
<!-- Generator: Adobe Illustrator 20.1.0, SVG Export Plug-In . SVG Version: 6.00 Build 0)  -->
<svg version="1.1" id="Слой_1" xmlns="http://www.w3.org/2000/svg" xmlns:xlink="http://www.w3.org/1999/xlink" x="0px" y="0px"
	 viewBox="0 0 19 18" style="enable-background:new 0 0 19 18;" xml:space="preserve">
<path id="Arrow" style="fill:#FFFFFF;" d="M1,8h17c0.6,0,1,0.4,1,1s-0.4,1-1,1H1c-0.6,0-1-0.4-1-1S0.4,8,1,8z M10.7,0.3l7.9,8
	c0.4,0.4,0.4,1,0,1.4s-1,0.4-1.4,0l0,0l-8-8c-0.4-0.4-0.4-1,0-1.5C9.7-0.1,10.3-0.1,10.7,0.3z M10.7,17.7l7.9-8c0.4-0.4,0.4-1,0-1.4
	c-0.4-0.4-1-0.4-1.4,0c0,0,0,0,0,0l-8,8c-0.4,0.4-0.4,1.1,0,1.4C9.7,18.1,10.3,18.1,10.7,17.7z"/>
</svg>
