<?xml version="1.0" encoding="utf-8"?>
<!-- Generator: Adobe Illustrator 20.1.0, SVG Export Plug-In . SVG Version: 6.00 Build 0)  -->
<svg version="1.1" id="Capa_1" xmlns="http://www.w3.org/2000/svg" xmlns:xlink="http://www.w3.org/1999/xlink" x="0px" y="0px"
	 viewBox="0 0 360 433.5" style="enable-background:new 0 0 360 433.5;" xml:space="preserve">
<g>
	<g>
		<path d="M73.4,362.8c-12.9,0-23.4,10.5-23.4,23.4s10.5,23.4,23.4,23.4s23.4-10.5,23.4-23.4S86.4,362.8,73.4,362.8z M73.4,394.7
			c-4.6,0-8.4-3.8-8.4-8.4c0-4.6,3.8-8.4,8.4-8.4s8.4,3.8,8.4,8.4C81.9,390.9,78.1,394.7,73.4,394.7z"/>
		<path d="M243.1,362.8c-12.9,0-23.4,10.5-23.4,23.4s10.5,23.4,23.4,23.4s23.4-10.5,23.4-23.4S256,362.8,243.1,362.8z M243.1,394.7
			c-4.6,0-8.4-3.8-8.4-8.4c0-4.6,3.8-8.4,8.4-8.4c4.6,0,8.4,3.8,8.4,8.4C251.5,390.9,247.7,394.7,243.1,394.7z"/>
		<path d="M352.5,202.4h-18.1c-2,0-3.9,0.8-5.3,2.2l-23.2,23.2H285v-111h24c2.6,0,4.9-1.3,6.3-3.5s1.6-4.9,0.5-7.2l-28.4-61.5
			c-1.2-2.7-3.9-4.4-6.8-4.4h-21.9V7.5c0-4.1-3.4-7.5-7.5-7.5h-186c-4.1,0-7.5,3.4-7.5,7.5v32.8H35.9c-2.9,0-5.6,1.7-6.8,4.4
			L0.7,106.2c-1.1,2.3-0.9,5,0.5,7.2c1.4,2.2,3.8,3.5,6.3,3.5h24v111h-24c-4.1,0-7.5,3.4-7.5,7.5v141.2c0,4.1,3.4,7.5,7.5,7.5h18.8
			c0,0.8-0.1,1.5-0.1,2.3c0,26,21.2,47.2,47.2,47.2c26,0,47.2-21.2,47.2-47.2c0-0.8,0-1.5-0.1-2.3h75.3c0,0.8-0.1,1.5-0.1,2.3
			c0,26,21.2,47.2,47.2,47.2s47.2-21.2,47.2-47.2c0-0.8,0-1.5-0.1-2.3H309c4.1,0,7.5-3.4,7.5-7.5V238.4l21-21h15
			c4.1,0,7.5-3.4,7.5-7.5S356.6,202.4,352.5,202.4z M72.8,15h171v32.8c0,0,0,0,0,0s0,0,0,0V60h-171V15z M40.7,55.3h17.1v12.2
			c0,4.1,3.4,7.5,7.5,7.5h186c4.1,0,7.5-3.4,7.5-7.5V55.3h17.1l21.5,46.5H19.2L40.7,55.3z M238,150.6c0,2.8-2.3,5.2-5.2,5.2
			s-5.2-2.3-5.2-5.2s2.3-5.2,5.2-5.2S238,147.7,238,150.6z M46.5,116.8h178.9v15.1c-7.4,3-12.7,10.2-12.7,18.7
			c0,11.1,9,20.2,20.2,20.2s20.2-9,20.2-20.2c0-8.5-5.3-15.7-12.7-18.7v-15.1H270v111H143v-38.2c0-8.3-5.1-15.4-12.3-18.4v-6
			c0-4.1-3.4-7.5-7.5-7.5s-7.5,3.4-7.5,7.5v6c-7.2,3-12.3,10.1-12.3,18.4v38.2h-7v-38.2c0-8.3-5.1-15.4-12.3-18.4v-6
			c0-4.1-3.4-7.5-7.5-7.5s-7.5,3.4-7.5,7.5v6c-7.2,3-12.3,10.1-12.3,18.4v38.2H46.5V116.8z M118.4,189.6c0-2.7,2.2-4.8,4.8-4.8
			s4.8,2.2,4.8,4.8v38.2h-9.7L118.4,189.6L118.4,189.6z M71.7,189.6c0-2.7,2.2-4.8,4.8-4.8s4.8,2.2,4.8,4.8v38.2h-9.7L71.7,189.6
			L71.7,189.6z M301.5,242.8v10.7H15v-10.7H301.5z M73.4,418.5c-17.8,0-32.2-14.5-32.2-32.2s14.4-32.2,32.2-32.2
			s32.2,14.5,32.2,32.2S91.2,418.5,73.4,418.5z M243.1,418.5c-17.8,0-32.2-14.5-32.2-32.2s14.5-32.2,32.2-32.2s32.2,14.5,32.2,32.2
			S260.8,418.5,243.1,418.5z M287,369c-6.9-17.5-24-29.9-43.9-29.9s-37,12.4-43.9,29.9h-81.8c-6.9-17.5-24-29.9-43.9-29.9
			c-19.9,0-37,12.4-43.9,29.9H15V268.5h286.5V369L287,369L287,369z"/>
		<path d="M224.1,285.3h-13.8c-4.5-3.9-10.4-6.3-16.8-6.3H123c-6.4,0-12.3,2.4-16.8,6.3H92.4c-5.1,0-9.9,2-13.5,5.6
			c-3.6,3.6-5.6,8.4-5.6,13.6c0,10.6,8.6,19.2,19.2,19.2h13.8c4.5,3.9,10.4,6.3,16.8,6.3h70.5c6.4,0,12.3-2.4,16.8-6.3h13.8
			c5.1,0,10-2,13.5-5.6c3.6-3.6,5.6-8.4,5.6-13.6C243.3,293.9,234.7,285.3,224.1,285.3z M88.2,304.5c0-1.1,0.4-2.2,1.2-2.9
			c0.5-0.5,1.4-1.2,2.9-1.2h5.4c-0.2,1.4-0.3,2.7-0.3,4.2c0,1.4,0.1,2.8,0.3,4.2h-5.4C90.1,308.7,88.2,306.8,88.2,304.5z M123,315
			c-5.8,0-10.5-4.7-10.5-10.5S117.2,294,123,294h70.5c5.8,0,10.5,4.7,10.5,10.5s-4.7,10.5-10.5,10.5H123z M227,307.4
			c-0.8,0.8-1.8,1.2-2.9,1.2h-5.4c0.2-1.4,0.3-2.7,0.3-4.2c0-1.4-0.1-2.8-0.3-4.2h5.4c2.3,0,4.2,1.9,4.2,4.2
			C228.3,305.6,227.8,306.6,227,307.4z"/>
	</g>
</g>
</svg>
