<?xml version="1.0" encoding="utf-8"?>
<!-- Generator: Adobe Illustrator 20.1.0, SVG Export Plug-In . SVG Version: 6.00 Build 0)  -->
<svg version="1.1" id="Layer_1" xmlns="http://www.w3.org/2000/svg" xmlns:xlink="http://www.w3.org/1999/xlink" x="0px" y="0px"
	 viewBox="0 0 1259.5 828.7" style="enable-background:new 0 0 1259.5 828.7;" xml:space="preserve">
<style type="text/css">
	.st0{fill:#020405;}
	.st1{fill:#EE4037;}
	.st2{fill:#F8ED37;}
	.st3{fill:#FAA545;}
	.st4{fill:#FFFFFF;}
	.st5{clip-path:url(#SVGID_2_);}
	.st6{clip-path:url(#SVGID_4_);}
	.st7{clip-path:url(#SVGID_6_);}
	.st8{clip-path:url(#SVGID_8_);}
	.st9{clip-path:url(#SVGID_10_);}
	.st10{clip-path:url(#SVGID_12_);}
	.st11{clip-path:url(#SVGID_14_);}
	.st12{clip-path:url(#SVGID_16_);}
	.st13{clip-path:url(#SVGID_18_);}
	.st14{fill:#FFFFFF;stroke:#000000;stroke-width:5;}
	.st15{font-family:'ArialMT';}
	.st16{font-size:42.7809px;}
	.st17{fill:none;stroke:#000000;stroke-width:2;}
</style>
<path class="st0" d="M896.7,64.4c307.7,68,449.5,288.8,307.6,496.1c-142,207.5-509.4,316-817.2,247.9
	C79.3,740.5-62.4,519.7,79.4,312.3C221.4,104.8,588.8-3.6,896.7,64.4z"/>
<path class="st1" d="M886.4,20.6C1199,89.7,1343.1,314,1198.9,524.7c-144.3,210.8-517.6,321-830.3,251.9
	C56,707.5-88,483.2,56.1,272.5C200.3,61.7,573.7-48.5,886.4,20.6z"/>
<path class="st2" d="M241.8,475.4C232.3,346,384.4,218.7,581.5,191.1c197.1-27.6,364.7,55,374.2,184.5
	C965.2,505,813.1,632.3,616,659.9C418.8,687.5,251.3,604.9,241.8,475.4z M197.8,481.6C188,348.6,359.6,215.7,581,184.8
	s408.9,51.8,418.6,184.8c9.8,133-161.8,265.9-383.2,296.8C395,697.3,207.6,614.6,197.8,481.6z"/>
<path class="st2" d="M233.8,311.6c107-156.5,370.1-244.4,587.6-196.3s307,213.9,199.9,370.4C914.2,642.1,651.1,730,433.6,681.9
	C216.2,633.9,126.7,468.1,233.8,311.6z M185.2,300.9c110-160.8,397.2-247.4,641.5-193.4s353.1,228.1,243.1,388.9
	c-110,160.7-397.2,247.3-641.5,193.3C184.1,635.7,75.2,461.6,185.2,300.9z"/>
<path class="st2" d="M326,404.6c-8.8-120.2,132.4-238.4,315.5-264S980.1,191.7,989,311.9c8.8,120.2-132.4,238.4-315.4,264
	C490.4,601.5,334.8,524.8,326,404.6z M285.1,410.3C276,286.8,435.4,163.4,641,134.7s379.7,48.1,388.7,171.6
	c9.1,123.4-150.2,246.8-355.8,275.6C468.3,610.6,294.2,533.8,285.1,410.3z"/>
<path class="st2" d="M159.4,491.8c-11.6-157.1,173-311.6,412.3-345s442.6,66.8,454.1,223.9c11.6,157.1-173,311.5-412.3,345
	C374.3,749.2,171,648.9,159.4,491.8z M106,499.3C94.1,337.9,302.4,176.6,571.1,139.1c268.8-37.6,496.2,62.8,508.1,224.2
	S882.8,686,614.1,723.5C345.3,761.1,117.9,660.7,106,499.3z"/>
<path class="st2" d="M149.7,293C279.6,103.1,598.9-3.6,862.8,54.7s372.5,259.6,242.6,449.5c-130,189.9-449.3,296.6-713.2,238.3
	C128.3,684.2,19.7,482.9,149.7,293z M90.7,280C224.2,84.9,572.8-20.2,869.3,45.3s428.5,276.8,295,471.9S682.2,817.4,385.8,751.9
	C89.3,686.4-42.8,475.1,90.7,280z"/>
<path class="st2" d="M261.6,405.9C250.9,260,422.3,116.6,644.4,85.5c222.2-31,410.9,62,421.7,207.9
	c10.7,145.9-160.7,289.3-382.8,320.4C461.1,644.8,272.3,551.7,261.6,405.9z M212,412.8C201,262.9,394.3,113.2,643.9,78.3
	c249.5-34.9,460.8,58.3,471.8,208.2S933.4,586.1,683.8,621C434.2,655.9,223,562.7,212,412.8z"/>
<path class="st3" d="M434.3,437.1c-4.8-64.9,71.4-128.6,170.2-142.4s182.7,27.6,187.5,92.4c4.8,64.9-71.4,128.6-170.2,142.4
	C523,543.3,439,501.9,434.3,437.1z M412.2,440.2c-4.9-66.6,81.1-133.2,192-148.7s204.9,25.9,209.8,92.6
	c4.9,66.6-81.1,133.2-192,148.7C511,548.3,417.1,506.8,412.2,440.2z"/>
<path class="st3" d="M430.2,355c53.6-78.4,185.5-122.5,294.4-98.4c109,24.1,153.8,107.2,100.1,185.6
	c-53.6,78.4-185.5,122.4-294.4,98.4C421.4,516.5,376.6,433.4,430.2,355z M405.9,349.6c55.1-80.6,199-123.9,321.4-96.9
	C849.7,279.8,904.2,367,849.1,447.5c-55.1,80.6-199,123.9-321.4,96.9C405.3,517.4,350.8,430.2,405.9,349.6z"/>
<path class="st3" d="M476.5,401.6c-4.4-60.2,66.3-119.4,158-132.2c91.7-12.8,169.7,25.6,174.1,85.8s-66.3,119.4-158.1,132.3
	C558.8,500.2,480.9,461.8,476.5,401.6z M456,404.5c-4.6-61.9,75.3-123.7,178.3-138.1c103-14.4,190.2,24.1,194.8,86
	c4.5,61.9-75.3,123.7-178.3,138.1C547.7,504.8,460.5,466.3,456,404.5z"/>
<path class="st3" d="M393,445.3c-5.8-78.7,86.7-156.1,206.6-172.9s221.7,33.5,227.5,112.2s-86.7,156.1-206.6,172.9
	C500.6,574.3,398.8,524,393,445.3z M366.2,449.1c-5.9-80.9,98.4-161.7,233-180.5c134.7-18.8,248.6,31.5,254.6,112.3
	c5.9,80.9-98.4,161.7-233,180.5C486.1,580.2,372.2,529.9,366.2,449.1z"/>
<path class="st2" d="M388.1,345.7c65.1-95.2,225.1-148.6,357.3-119.4s186.6,130,121.5,225.2s-225,148.6-357.3,119.4
	C377.4,541.7,323,440.9,388.1,345.7z M358.6,339.2c66.9-97.8,241.5-150.4,390.1-117.6C897.2,254.4,963.4,360.3,896.5,458
	C829.6,555.8,655,608.4,506.4,575.6C357.9,542.8,291.7,436.9,358.6,339.2z"/>
<path class="st3" d="M444.2,402.2c-5.4-73.1,80.5-145,191.8-160.5c111.3-15.6,205.9,31.1,211.3,104.2s-80.5,144.9-191.8,160.5
	C544.1,522,449.5,475.3,444.2,402.2z M419.3,405.7c-5.5-75.1,91.4-150.1,216.4-167.6s230.9,29.2,236.4,104.3S780.7,492.5,655.7,510
	C530.7,527.5,424.8,480.8,419.3,405.7z"/>
<path class="st0" d="M1019.9,217.9c1.2,7.6,2.3,15.3,3.3,22.9c1,7-4.2,12.2-11.7,11.8c-6-0.4-12-0.6-18-0.7
	c-4.9-0.1-10.3-4.7-10.8-9.3l-0.1-0.5c-6,8.3-15.4,13.8-28.7,14.5c-38.9,0.9-52.3-34.7-55.8-64.1c-3-28.6-6.6-57.4-11-86
	c-1.2-7.8,4.3-13.1,12.6-11.9c10.7,1.5,21.4,3.4,32.1,5.6c1.2,0.3,2.8,1.2,4.2,2.5c2.1-0.6,4.5-0.6,7.2,0.1c8.4,2,16.8,4.4,25.1,7.1
	c0.7,0.2,1.8,1,2.9,2c1.9,0,4,0.3,6.3,1.2c9,3.4,18,7.5,26.6,12.4c9.2,5.8,14.7,15.5,18,23.9c3.2,8.2,5.2,17.3,7,24.8
	c0.7,3.2,2.9,12.1,3.6,19.8c0.3,3.8,0.5,8.9-0.9,13.2C1030.6,211.5,1026.6,216.8,1019.9,217.9z"/>
<path class="st0" d="M808.9,148.2c2.1,0.8,4.3,1.6,6.5,2.4c17.2,6.6,39,17.2,41.6,47.4c3.8,45.4-28,66.9-61.6,71
	c-30.6,3-79.5-0.5-79.8-57c0-4.9,4.8-10,10-10.5c14-1.4,28.1-2.6,42.2-3.8c-2.7-0.8-5.5-1.6-8.3-2.5c-16.7-5.1-38.1-13.2-43.3-39.2
	l-15.5,35.9c-0.9,2.2-6.6,6.2-9.1,6.5c-10,1-20.1,2.1-30.1,3.2c-9.4,1.1-14.7-5-11.9-13.5l7.7-23.5c-5.3-0.7-9.3-4.9-9.3-10.2v-2.1
	c-7.7,0.8-15.5,1.7-23.2,2.6c0.1,40.2,0.1,80.3,0.1,120.5c0,4.5-4.8,9.7-9.5,10.4c-19.4,2.7-38.8,5.5-58.2,8.4
	c-5.1,0.8-9.5-1.4-11.6-5.2c-0.9,4.2-4.4,7.6-9.1,8.4c-19.2,3-38.4,6-57.6,9.2c-6.1,1-12.1-3.1-12.9-8.9l-2.3-15.6l-10.4,1.9
	c-1,6.7-2,13.4-3,20.2c-0.5,3.3-5.5,8.2-9,8.8c-17.4,3-34.8,6.2-52.1,9.4c-1.4,0.3-2.8,0.4-4,0.3c-0.8,0.5-1.7,0.8-2.5,1
	c-15.1,2.9-30.2,5.8-45.2,8.9c-3.7,0.8-7.1,0-9.5-1.8c-1.7,2.5-4.3,4.7-6.8,5.2c-12.6,2.7-25.2,5.4-37.7,8.3
	c-4.6,1.1-8.7-0.2-11.2-3c-1.3,3.2-4.9,6.8-7.8,7.5c-11.8,2.9-23.6,5.9-35.4,9.1c-2.4,0.7-4.6,0.7-6.6,0.1c-1.3,1.4-2.9,2.6-4.2,3
	c-8,2.3-16,4.8-23.8,7.5c-7.6,2.6-14.1-1.3-14.8-8.9c-3.9-40.7-5.9-81.3-5.9-121.7c0-1.4,2.8-7.1,4-8c4.9-3.9,9.9-7.5,15.1-11
	c2.5-1.7,4.9-2.6,7.1-2.8c1.1-1.7,2.3-3.3,3-3.7c9.7-5.9,19.6-11.3,29.7-16.4c3.4-1.7,6.6-2.1,9.2-1.5c1.4-2.2,3.5-4.7,4.7-5.2
	c8.9-4.1,17.9-8,27-11.8c1.7-0.7,3.4-1.1,5-1.3c0.8-0.8,1.6-1.4,2.2-1.6c12.9-5.1,25.9-9.8,39-14.3c4.1-1.4,7.8-1.1,10.5,0.5
	c1.6-2.6,4.3-5.4,6.3-6c15.2-4.9,30.5-9.4,45.9-13.6c8.4-2.3,14.6,2.4,14.2,10.6c-1.5,26.5-2.7,53-3.5,79.6
	c7.1-31.3,14.7-62.4,22.8-93.3c0.6-2.3,5.6-7.1,8-7.6c24.3-5.8,48.8-11,73.4-15.7c5.8-1.1,11.9,2.7,13.1,8.2l2.4,11.4l0.4-14.1
	c0.1-4.1,4.9-9.3,9.1-10c40.7-7,81.8-12.5,123.1-16.5c2.3-0.2,4.6,0.2,6.4,1.2c1.6-1.2,3.6-2.1,5.6-2.3c16.2-1.4,32.4-2.6,48.6-3.5
	c6.1-0.3,11.5,4.3,11.7,10.1c0.3,7.3,0.6,14.6,0.9,21.9c9.4-27.3,37.1-38.2,63.4-38.5c28.2,0.8,63,11.4,67.7,54.1
	c0.7,6.5-4.3,11.6-11.2,11.5C828.3,148.1,818.6,148.1,808.9,148.2z"/>
<path class="st0" d="M724,98.8c14.6-15.8,37.1-22.2,57.6-22.5c29.5,0.8,69.1,12.3,74.2,59.7c1.1,10.2-7.1,18.6-17.9,18.5
	c12.4,8.1,23.7,20.9,25.6,43c4.2,49.7-31.4,73.3-67.4,77.7c-30.6,3-86.9,0-87.3-63.2c0-8.1,7.4-15.9,15.9-16.8
	c4.6-0.4,9.1-0.9,13.7-1.3c-8.6-4.4-17.1-10.7-22.8-20.4l-9,20.7c-1.8,4.3-9.6,9.8-14.5,10.3c-10,1-20,2.1-30,3.2
	c-14.2,1.6-23.3-8.7-19.1-21.6l5.9-18c-3.3-2.1-5.8-5.2-7-9l-10.7,1.2c0.1,38.3,0.1,76.6,0.1,114.9c0,7.6-7.2,15.5-15.2,16.6
	c-19.4,2.7-38.8,5.5-58.2,8.4c-4,0.6-7.8,0-11-1.5c-2.5,2.4-5.8,4.1-9.6,4.7c-19.2,3-38.4,6-57.6,9.2c-9.8,1.6-19.3-4.9-20.6-14.2
	l-0.8-5.3l-1.8,11.7c-0.9,6-8.1,13-14.3,14.1c-17.4,3-34.7,6.2-52.1,9.4c-1.3,0.2-2.5,0.4-3.8,0.4c-0.9,0.4-1.8,0.6-2.7,0.8
	c-15.1,2.9-30.1,5.8-45.1,8.9c-3.2,0.6-6.3,0.6-9.2-0.2c-2,1.7-4.4,3-7,3.6c-12.6,2.7-25.1,5.4-37.6,8.3c-3.8,0.9-7.6,0.7-10.9-0.5
	c-2.2,2.3-5,4.2-7.9,4.9c-11.8,2.9-23.5,5.8-35.2,9c-2.1,0.6-4.2,0.8-6.3,0.7c-1.3,1-2.8,1.8-4.5,2.3c-7.9,2.3-15.7,4.7-23.5,7.4
	c-11.7,4-22.6-2.5-23.7-14.2c-3.9-40.9-5.9-81.6-5.9-122.2c0-3.3,3.7-10.8,6.4-12.9c5-4,10.2-7.7,15.5-11.3c2.2-1.5,4.5-2.6,6.9-3.3
	c1.1-1.4,2.7-2.9,3.4-3.3c9.8-6,19.9-11.5,30.2-16.7c2.9-1.5,6-2.4,9-2.5l0.6-0.7c0.8-0.9,2.4-2.7,4.4-3.6c9-4.2,18.1-8.1,27.3-11.9
	c1.5-0.6,3.1-1.1,4.6-1.4c0.8-0.6,1.7-1.1,2.7-1.5c13-5.1,26.1-9.9,39.3-14.4c3.4-1.2,6.9-1.6,10.3-1.1c1.8-1.9,4.1-3.7,6.6-4.5
	c15.3-4.9,30.7-9.4,46.2-13.7c12.8-3.5,23.4,4.4,22.7,17l-0.6,11.2c2.2-8.9,4.5-17.8,6.9-26.7c1.2-4.5,8.1-11.1,12.9-12.2
	c24.4-5.8,49-11.1,73.7-15.7c4.9-0.9,9.9,0.3,13.8,2.9c2.8-3.7,7-6.7,11.3-7.4c40.9-7,82.1-12.5,123.6-16.5c2.2-0.2,4.3,0,6.4,0.4
	c1.7-0.8,3.6-1.4,5.7-1.5c16.2-1.4,32.5-2.6,48.8-3.5C715,82.4,723.5,89.7,724,98.8z M977.1,247.1c1.4,9.8-9.3,15.1-22.8,15.8
	c-45.1,1.1-59.2-40.6-62.7-69.7c-2.9-28.5-6.6-57.2-11-85.7c-1.9-12,7.5-20.8,20.2-19c10.8,1.6,21.7,3.4,32.5,5.7
	c1.7,0.3,3.3,1.1,4.6,2c2.3-0.2,4.7,0.1,7.1,0.7c8.6,2.1,17.2,4.5,25.7,7.3c1.3,0.4,2.4,1.1,3.4,1.8c2,0.2,4.1,0.8,6.1,1.5
	c9.3,3.5,18.8,7.8,27.7,13c11,6.9,17.1,18.1,20.6,27c3.3,8.5,5.4,17.9,7.2,25.7c0.8,3.4,3,12.6,3.7,20.7c0.3,3.9,0.6,10-1.2,15.6
	c-1.4,4.3-4.9,9.8-11,12.8c0.9,6,1.8,12,2.6,17.9c1.5,10.9-7.1,19.5-18.7,18.9c-5.9-0.4-11.8-0.5-17.7-0.6
	C986.6,258.1,979.7,253.2,977.1,247.1z M824.3,644.6c-9.2,2.1-18.4,4.2-27.7,6.2c-4.6,1-9.2,0.2-12.9-1.9
	c-10.7,9.5-26.4,14.9-40.4,17.8c-32.7,5.5-54.7-8.9-65.7-32.1c-12.4,29.2-36.3,48.5-75.9,54c-38.6,4.1-63.2-9.1-76.9-33.4
	c-9.8,24.1-31.1,38.4-60.4,40.7c-22.9,1.2-46,2.1-69.1,2.3c-8.9,0.1-17.3-7.1-17.9-15.5c-4.1-53.2-6.6-106.4-7.9-159.4
	c-0.2-7.8,7-15.8,15.2-16.9c23.6-3.2,47.5-6.5,71.1-9.8c29.5-3.5,53,7,65.1,29.7c12.1-29.3,36.1-48.7,75.5-54.9
	c42.2-5.3,67.8,9.9,80.9,37.2c12.7-34.1,40.9-53.8,79-60c20.8-2.8,45.3,0.2,62.5,14.7l-0.2-2.6c-0.8-8.4,6.2-16.7,14.9-18
	c16.6-2.5,33.2-4.9,49.8-7.4c11.6-1.7,21,6.2,20.5,17.3c-1.4,31.4-3.4,62.7-5.9,93.9c-0.1,1.7-0.7,3.4-1.6,5c2.4,3,3.6,6.8,3.5,10.9
	c-0.3,17.3-0.8,34.5-1.4,51.7c-0.2,6.1-6.6,13.8-12.8,15.5c-13.8,3.8-27.6,7.3-41.5,10.7c-4,1-8,0.9-11.5-0.4
	C830.3,641.9,827.4,643.9,824.3,644.6z"/>
<path class="st4" d="M190.4,358.5c8-2.8,16.2-5.3,24.4-7.7c0.7-31.6,2.5-63,5.3-94.2c0.1,0,0.1-0.1,0.2-0.1
	c1,30.3,2.8,60.8,5.6,91.2c11.8-3.2,23.8-6.3,35.7-9.2c3.2-51,8.6-101.6,16-151.5c-8.9,3.7-17.8,7.5-26.5,11.5
	c-4.5,36.2-7.8,72.8-9.9,109.6c-0.1,0-0.1,0-0.2,0.1c-2.2-34.5-3.4-68.9-3.4-103.1c-9.8,4.9-19.5,10.2-28.9,15.9
	c-3.6,33.4-6,67.2-7.1,101.2c0,0-0.1,0-0.1,0.1c-1.9-31.8-2.7-63.5-2.4-95c-4.9,3.3-9.7,6.8-14.4,10.5
	C184.6,277.9,186.6,318.1,190.4,358.5z"/>
<path class="st4" d="M280.7,334c12.6-2.9,25.2-5.7,37.9-8.3c-0.1-20.2,0.1-40.3,0.5-60.5c5.5-1.5,11-2.9,16.5-4.3
	c-0.5,20.4-0.7,40.9-0.6,61.4c15.1-3.1,30.2-6.1,45.4-8.9c0.2-54.3,1.8-108.4,4.9-162.2c-15.3,4.2-30.4,8.7-45.5,13.5
	c-1.1,16.9-2,33.8-2.7,50.7c-5.5,1.6-11,3.2-16.5,4.9c0.7-16.7,1.6-33.4,2.7-50.1c-12.9,4.4-25.8,9.1-38.5,14.1
	C281.4,233.8,280.1,283.8,280.7,334z"/>
<path class="st4" d="M461.4,161.5c0.1,0,0.3-0.1,0.4-0.1c2.5,25.3,5.1,50.6,7.9,75.9c-7.1,1.3-14.3,2.7-21.4,4
	C452.4,214.7,456.7,188,461.4,161.5z M386.9,312.1c17.4-3.3,34.8-6.4,52.3-9.5c1.4-9.2,2.8-18.4,4.2-27.6c9.9-1.8,19.8-3.6,29.7-5.3
	c1.3,8.8,2.5,17.6,3.8,26.5c19.2-3.2,38.5-6.3,57.8-9.2c-12.1-53.9-24-107.9-35.4-162c-24.4,4.6-48.7,9.8-72.8,15.6
	C411.6,197,398.5,254.3,386.9,312.1z"/>
<path class="st4" d="M523,159c11.2-1.9,22.3-3.7,33.5-5.4c-0.6,43.4-1,86.8-1.2,130.3c19.4-2.9,38.9-5.7,58.4-8.4
	c0-43.2-0.1-86.5-0.2-129.7c11-1.4,22.1-2.6,33.1-3.8c-0.2-12.6-0.3-25.1-0.5-37.7c-41,4-81.8,9.5-122.2,16.4
	C523.6,133.4,523.3,146.2,523,159z"/>
<path class="st4" d="M659,154.2c4.6-0.5,9.1-0.9,13.7-1.4c-4.2,12.8-8.4,25.6-12.5,38.3c10.1-1.1,20.1-2.2,30.2-3.2
	c5.9-13.6,11.8-27.3,17.7-40.9c-0.5-15.8-1.1-31.6-1.7-47.4c-16.1,0.9-32.2,2.1-48.2,3.5C658.4,120.2,658.7,137.2,659,154.2z"/>
<path class="st4" d="M838.2,137.8c-3.8-34.9-30.9-44-56.7-44.7c-29.6,0.4-57.8,14.9-55.4,54c3.1,51.3,70.1,28.7,74.2,65.9
	c0.8,7.8-4.5,14.2-10.8,15c-3.5,0.2-6.6-1.4-8.5-5.3c-2-4.9-2.3-10.3-2.7-15.4c-17.2,1.3-34.5,2.9-51.7,4.5
	c0.3,45.7,37.2,49.6,67.5,46.7c29.3-3.6,55-21.3,51.8-59.7c-4-47.8-65.3-33.4-69.7-64.9c-0.8-5.8,3.2-11.1,7.9-11.4
	c3.3,0,7.3,0.4,9.6,4c2,3.4,2.3,7.5,2.6,11.3C810.2,137.7,824.2,137.6,838.2,137.8z"/>
<path class="st4" d="M964.9,119.9c-8-2.6-16.1-4.9-24.2-6.9c5.7,30.2,10.4,60.4,14.1,90.7c0.6,5.4,2,13-4.2,13
	c-6.3-0.2-6.7-7.9-7.4-13.5c-3.6-31-8.1-61.9-13.6-92.8c-10.4-2.2-20.9-4-31.4-5.5c4.5,28.8,8.1,57.6,11.1,86.4
	c3.5,29.8,15.6,55.4,44.3,54.7c25.1-1.4,28.5-24.8,25-50.6C974.8,170.3,970.3,145,964.9,119.9z"/>
<path class="st4" d="M996.3,152.1c0.8,0.4,1.7,0.7,2.5,1.1c4.1,2.2,5.8,10,6.7,14.4c0.5,2.5,3.7,16.3-0.2,15.4
	c-0.9-0.3-1.9-0.6-2.8-0.9C1000.6,172.1,998.5,162.1,996.3,152.1z M993.7,241.5c6.2,0.1,12.4,0.3,18.5,0.7
	c-1.7-12.3-3.5-24.6-5.6-36.9c3.3,0.7,6.6,1.4,9.9,2.3c10.1,1.9,3.2-25,1.8-31c-3.3-14.2-7.5-34.1-20.1-42.1
	c-8-4.6-16.3-8.3-24.7-11.5C982.4,162.2,988.9,201.8,993.7,241.5z"/>
<path class="st3" d="M344.1,367.1c-16.1,13.2-20.7,16.9-42.5,20l-27.3-7c-16.6-8.6-12.3-42.4,25.8-22.6c18.6-5.8,33.6-31.7,58.5-27
	c9.2,1.7,17,1.8,21.9,9.3c5.9,9-4.4,17.6-5.2,26.7c25.8-12.7,48-57.1,82.6-44.4c11.7,4.3,26,18.2,26,18.2l17.3,12.5
	c31.9-16.6,59.7-59.5,83.9-52.9l5.7-0.7l24.6,16.8l3.6,24.3c27.1-14.2,29-56,70.4-61.5l6.2-0.8l35.2,27c17.5-13.9,11.6-39.7,41-43.7
	l10.2,2.3l17,13.6c25.8-14.9,53.4-24.6,86.3-1.5c13.4-15.9,16.2-27.5,40.6-31.2l24.6,11.1c44.4,9.4,19,27.6-26.6,23.5
	c-22.9-2.1-26,46-52.4,25.7c-27.6-21.3-46.3,21.4-72.9,11.1c-10.5-4.1-12.9-13.4-24.1-15.5c-22.9-4.2-16.3,35.4-43.3,39.2l-6.2,0.9
	c0,0-17.4-13-33.3-21.2c-23.9-12.4-50.4,80.7-82.7,58.2c-15.7-10.9-21.9-42.4-21.9-42.4l-2.3-1.6c-18.5,3.8-51.8,68-93.5,56.7
	c-20.7-5.6-43.6-32.1-43.6-32.1c-19.2,9.5-84.6,73.9-101.2,25.6C344.4,378.3,344,372.6,344.1,367.1z"/>
<path class="st3" d="M344,368.5c-16.1,13.2-20.7,16.9-42.5,20l-27.3-7c-16.6-8.6-12.3-42.4,25.8-22.6c18.6-5.8,33.6-31.7,58.5-27
	c9.2,1.7,17,1.8,21.9,9.3c5.9,9-4.5,17.6-5.2,26.7c25.8-12.7,48-57.1,82.6-44.4c11.7,4.3,26,18.2,26,18.2l17.3,12.5
	c31.9-16.6,59.7-59.5,83.9-52.9l5.7-0.7l24.6,16.8l3.6,24.3c27.1-14.2,29-56,70.4-61.5l6.2-0.8l35.2,27c17.5-13.9,11.6-39.7,41-43.7
	l10.2,2.3l17,13.6c25.8-14.9,53.5-24.6,86.3-1.5c13.4-15.9,16.2-27.5,40.6-31.2l24.6,11.1c44.4,9.4,19,27.6-26.6,23.5
	c-22.9-2.1-26,46-52.4,25.7c-27.6-21.3-46.3,21.4-72.9,11.1c-10.5-4.1-12.9-13.4-24-15.5c-23-4.2-16.3,35.4-43.3,39.2l-6.2,0.8
	c0,0-17.4-13-33.3-21.2c-23.9-12.4-50.4,80.7-82.7,58.2c-15.7-10.9-21.9-42.4-21.9-42.4l-2.3-1.6c-18.5,3.8-51.8,68-93.5,56.7
	c-20.7-5.6-43.6-32.1-43.6-32.1c-19.2,9.5-84.6,73.9-101.2,25.6C344.4,379.7,343.9,374.1,344,368.5z"/>
<path class="st0" d="M1092,329c-13.3,41.4-53.5,69.6-91.6,82.3C961.1,468,844.5,518.7,718.9,547.9c-33,8.3-67.4,15-102.2,19.6
	c-28.3,3.8-56,6-82.7,7c-130.6,7.2-249.1-12.2-301-58.8c-32.5-0.8-69.1-11.4-95.2-34.2l-0.7,1.1l-20.7-9.4c-1.8,0.7-3.7,1.4-5.8,2
	l-8.7,2.6l-12.5-20.2c-11.3-0.1-17.8-40.2-10.6-41.5c1.2-11.8,17.2-20.3,26.8-19.8c1.4,0.1,2.7,0.1,4.1,0.2
	c13.3-34.2,56-50.3,87.1-52.1c18-0.6,36.1-1.4,54.1-2.3c8-9,20.5-13.1,34.1-11.8c7.7-2.1,16.2-3.9,25.5-5.3c1.5-1.1,3-2.2,4.5-3.2
	c3.5-2.5,7.6-5.1,12.3-7.3c9.7-4.6,21.8-7.6,35.8-5c5.6,1.1,10.8,1.8,15.3,3.2c5.5,1.7,11.1,4.6,16.1,9.4c6.7-5.9,14.8-12.4,24-16.9
	c13.4-6.6,29.7-9.5,47.7-2.9c7.2,2.6,14,7,19.4,10.9c13-1.7,25.8-3.4,38.1-5.1c3-2.7,5.9-5.3,8.9-7.7c4.8-4,9.9-8.1,15.3-11.6
	c8.9-5.8,21.5-14.4,37.2-12.2l11.7,0.3l21.5,14.7c5.8-1.6,11.7-3.2,17.7-5c10.3-12.7,25.3-25.5,50.3-28.8l15.9-2.1l8.7,6.6
	c10.2-3.5,20.1-7,29.6-10.3c7.4-6.1,16.7-10.2,28.1-11.7l4.3-0.6l1.5,0.4c11-3.8,20.5-7.1,28.1-9.6c40.5-13,76.1-13.2,106.2-3.9
	c4.2-1.4,8.7-2.4,13.5-3.1l7-1c15.7-1.5,28.7,13,28.7,13c4.7,1.1,9.2,2.4,13.3,3.9l11.1-2.7c28.2-6.2,67.4-3.7,92.3,17.8l5.1,2.3
	c1.8-0.7,3.7-1.4,5.7-2l8.7-2.6l11.1,18.1c28,4.5,23.9,38.6,12.1,41C1115.3,321.9,1101.1,328.8,1092,329z"/>
<g>
	<g>
		<defs>
			<path id="SVGID_1_" d="M235.8,443.5c-8.9-59.9,12.8-104,137.7-99.8c47.8,1.6,149.6-14.2,204-21.5c60.1-8,184.5-56.3,232.2-71.6
				c107.9-34.7,163.5,35.3,172.1,92.8c12.3,82.9-171.9,177-368.2,203C417.3,572.5,248.2,526.4,235.8,443.5z"/>
		</defs>
		<clipPath id="SVGID_2_">
			<use xlink:href="#SVGID_1_"  style="overflow:visible;"/>
		</clipPath>
		<g class="st5">
			<g>
				<g>
					<defs>
						<rect id="SVGID_3_" x="224.2" y="215.8" width="767.1" height="356.6"/>
					</defs>
					<clipPath id="SVGID_4_">
						<use xlink:href="#SVGID_3_"  style="overflow:visible;"/>
					</clipPath>
					<g class="st6">
						<g>
							<defs>
								<rect id="SVGID_5_" x="224.2" y="215.8" width="767.1" height="356.6"/>
							</defs>
							<clipPath id="SVGID_6_">
								<use xlink:href="#SVGID_5_"  style="overflow:visible;"/>
							</clipPath>
							<g class="st7">
								
									<image style="overflow:visible;enable-background:new    ;" width="3200" height="1492" xlink:href="3AAFBDA2.jpeg"  transform="matrix(0.2398 0 0 0.239 224.1851 215.7414)">
								</image>
							</g>
						</g>
					</g>
				</g>
			</g>
			<g>
				<g>
					<defs>
						<path id="SVGID_7_" d="M977,395.5c-242.2,44.7-486.2,77.7-732,98.7c-39.8,2.4-87.1-13-107.8-47.2c-3.6,5.3-10.2,9.6-14.4,16.4
							c4.1-10,7.8-11.2,9.1-21.7c-13,4.5-17.3,9.9-28.2,13.2c4.9-4.2,17-10.8,22.9-22.4l-2.1,1.8c-21.6,2.3-38.8,2.1-28.3,1
							c14.8-1.6,19.7-5.2,29.5-9.9c-12.8-4.6-26.1-8-21.2-7.8c8.6,0.4,17.4,0,24,2.9c-1.5-32.5,35.2-52.9,69.5-54.8
							c267.3-9.5,530.6-45.9,789.7-108.3c28.6-6.3,63.9-0.7,78.8,20.7c3-3.1,6.6-6.2,9.2-10.4c-2.8,6.9-5.4,9-6.9,14
							c0.7,1.2,1.3,2.5,1.8,3.9c9.2-3.7,13.1-7.9,21.8-10.5c-4.1,3.6-14.1,9.1-19.4,18.5l0.1,0.5l1.2-1c18.9-2,33.9-1.9,24.8-0.9
							c-12.7,1.4-17.1,4.4-25.3,8.4v0.4c11,4,22.3,6.8,18.1,6.6c-6.4-0.3-12.8-0.1-18.2-1.6c-0.1,1.3-0.2,2.7-0.4,4
							C1067.1,354.7,1020.5,386.3,977,395.5z"/>
					</defs>
					<clipPath id="SVGID_8_">
						<use xlink:href="#SVGID_7_"  style="overflow:visible;"/>
					</clipPath>
					<g class="st8">
						<g>
							<g>
								<defs>
									<rect id="SVGID_9_" x="82.9" y="251" width="1022.4" height="245.4"/>
								</defs>
								<clipPath id="SVGID_10_">
									<use xlink:href="#SVGID_9_"  style="overflow:visible;"/>
								</clipPath>
								<g class="st9">
									<g>
										<defs>
											<rect id="SVGID_11_" x="82.9" y="251" width="1022.4" height="245.4"/>
										</defs>
										<clipPath id="SVGID_12_">
											<use xlink:href="#SVGID_11_"  style="overflow:visible;"/>
										</clipPath>
										<g class="st10">
											
												<image style="overflow:visible;enable-background:new    ;" width="4263" height="1029" xlink:href="3AAFBDA6.jpeg"  transform="matrix(0.2399 0 0 0.2386 82.9193 250.9785)">
											</image>
										</g>
									</g>
								</g>
							</g>
						</g>
						<g>
							<g>
								<defs>
									<path id="SVGID_13_" d="M228.4,465.9c-7.6-51.2,15.7-89.5,143-88.7c48.7,0.3,153-15.5,208.6-22.9
										c61.5-8.2,189.6-52.3,238.6-66.5c110.9-32.2,166,26.7,173.3,75.8c10.5,70.8-179.8,155.6-380.7,182.2
										C410.4,572.5,239,536.7,228.4,465.9z"/>
								</defs>
								<clipPath id="SVGID_14_">
									<use xlink:href="#SVGID_13_"  style="overflow:visible;"/>
								</clipPath>
								<g class="st11">
									<g>
										<g>
											<defs>
												<rect id="SVGID_15_" x="218.1" y="255.5" width="781.6" height="316.8"/>
											</defs>
											<clipPath id="SVGID_16_">
												<use xlink:href="#SVGID_15_"  style="overflow:visible;"/>
											</clipPath>
											<g class="st12">
												<g>
													<defs>
														<rect id="SVGID_17_" x="218.1" y="255.5" width="781.6" height="316.8"/>
													</defs>
													<clipPath id="SVGID_18_">
														<use xlink:href="#SVGID_17_"  style="overflow:visible;"/>
													</clipPath>
													<g class="st13">
														
															<image style="overflow:visible;enable-background:new    ;" width="3258" height="1325" xlink:href="3AAFBDA6.jpeg"  transform="matrix(0.2399 0 0 0.2393 218.0649 255.5211)">
														</image>
													</g>
												</g>
											</g>
										</g>
									</g>
									<path class="st0" d="M345.2,372.5c-16.1,13.2-20.7,16.9-42.5,20c-14.9,1.3-27.3-7-27.3-7c-16.6-8.6-12.3-42.4,25.8-22.6
										c18.6-5.8,33.6-31.7,58.5-27c9.2,1.7,17,1.8,21.9,9.3c5.9,9-4.4,17.6-5.2,26.7c25.8-12.7,48-57.1,82.6-44.4
										c11.7,4.3,26,18.2,26,18.2l17.3,12.5c31.9-16.6,59.1-63,83.3-56.4l6.2,2.7c0,0,11.1,2.7,24.6,16.8
										c6.4,16.7,3.6,24.3,3.6,24.3c27.1-14.2,29-56,70.4-61.5l6.2-0.8l35.2,27c17.5-13.9,11.6-39.6,41-43.7l10.2,2.3l17,13.6
										c25.8-14.9,53.5-24.6,86.3-1.5c13.4-15.9,16.2-27.5,40.6-31.2l24.6,11.1c44.4,9.4,19,27.6-26.6,23.5
										c-22.9-2.1-26,46-52.4,25.7c-27.6-21.3-46.3,21.4-72.9,11.1c-10.5-4.1-12.9-13.4-24-15.5c-23-4.2-16.3,35.5-43.3,39.2
										l-6.2,0.8c-7.2-0.4-17.4-13-33.3-21.2c-23.9-12.4-50.4,80.7-82.8,58.2c-15.7-10.9-21.9-42.4-21.9-42.4l-2.3-1.6
										c-18.5,3.8-51.8,68-93.5,56.7c-20.7-5.6-35.2-28.4-43.6-32.1c-21.8-1.1-84.6,73.9-101.2,25.6
										C345.6,383.7,345.1,378.1,345.2,372.5z"/>
									<path class="st2" d="M344.1,367.1c-16.1,13.2-20.7,16.9-42.5,20c-14.3,1.8-27.3-7-27.3-7c-16.6-8.6-12.3-42.4,25.8-22.6
										c18.6-5.8,33.6-31.7,58.5-27c9.2,1.7,17,1.8,21.9,9.3c5.9,9-4.4,17.6-5.2,26.7c25.8-12.7,48-57.1,82.6-44.4
										c11.7,4.3,26,18.2,26,18.2l17.3,12.5c31.9-16.6,58.9-61.8,83.2-55.2c16-1.8,31,18.4,31,18.4c5.6,14.9,3.6,24.3,3.6,24.3
										c22.4-16.7,29-56,70.4-61.5c18-2.4,41.4,26.2,41.4,26.2c17.5-13.9,11.6-39.7,41-43.7l10.2,2.3l17,13.6
										c25.8-14.9,53.4-24.6,86.3-1.5c13.4-15.9,16.2-27.5,40.6-31.2c10.1-1.3,25.5,4.7,25.5,4.7c44.4,9.4,18.1,34-27.5,29.9
										c-22.9-2.1-26,46-52.4,25.7c-27.6-21.3-46.3,21.4-72.9,11.1c-10.5-4.1-12.9-13.4-24.1-15.5c-22.9-4.2-16.3,35.4-43.3,39.2
										c-7.1,3.4-23.6-12.1-39.5-20.4c-23.9-12.4-50.4,80.7-82.7,58.2c-15.7-10.9-21.9-42.4-21.9-42.4l-2.3-1.6
										c-18.5,3.8-51.8,68-93.5,56.7c-20.7-5.6-35.4-32.6-43.6-32.1c-20.6,2.5-84.6,73.9-101.2,25.6
										C344.4,378.3,344,372.6,344.1,367.1z"/>
									<path class="st0" d="M824.3,629.7c-9.2,2.1-18.4,4.2-27.7,6.2c-4.6,1-9.2,0.2-12.9-1.9c-10.7,9.5-26.4,14.9-40.4,17.8
										c-32.7,5.5-54.7-8.9-65.7-32.1c-12.4,29.2-36.3,48.5-75.9,54c-38.6,4.1-63.2-9.1-76.9-33.4c-9.8,24.1-31.1,38.4-60.4,40.7
										c-22.9,1.2-46,2.1-69.1,2.3c-8.9,0.1-17.3-7.1-17.9-15.5c-4.1-53.2-6.6-106.4-7.9-159.4c-0.2-7.8,7-15.8,15.2-16.9
										c23.6-3.2,47.5-6.5,71.1-9.8c29.5-3.5,53,7,65.1,29.7c12.1-29.3,36.1-48.7,75.5-54.9c42.2-5.3,67.8,9.9,80.9,37.2
										c12.7-34.1,40.9-53.8,79-60c20.8-2.8,45.3,0.2,62.5,14.7l-0.2-2.6c-0.8-8.3,6.2-16.7,14.9-18c16.6-2.5,33.2-4.9,49.8-7.4
										c11.6-1.7,21,6.2,20.5,17.3c-1.4,31.4-3.4,62.7-5.9,93.9c-0.1,1.7-0.7,3.4-1.6,5c2.4,3,3.6,6.8,3.5,10.9
										c-0.3,17.3-0.8,34.5-1.4,51.7c-0.2,6.1-6.6,13.8-12.8,15.5c-13.8,3.8-27.6,7.3-41.5,10.7c-4,1-8,0.9-11.5-0.4
										C830.3,627,827.4,629,824.3,629.7z"/>
									<path class="st4" d="M395.1,666.5c22.8-0.3,45.4-1.1,68.1-2.3c31.3-2.4,50.2-21.3,50-58.8c-0.4-18.8-0.7-37.6-1-56.4
										c-1.2-38.9-22.5-54.6-54-50.9c-23.6,3.3-47.3,6.6-70.9,9.8C388.5,560.6,391,613.5,395.1,666.5z M436.4,537.3
										c2.7-0.3,5.5-0.6,8.2-1c9.5-1,12.8,5.8,13.2,16c0.5,20.4,1.1,40.8,1.8,61.1c0.3,10.2-2.6,16.9-11.8,17.7
										c-2.7,0.2-5.3,0.4-8,0.5C438.2,600.2,437.1,568.7,436.4,537.3z"/>
									<path class="st4" d="M586.5,526.3c0.1-9.2,4.8-15.3,12.5-16.6c7.6-0.9,12.4,4.2,12.6,13.1c0,27.9,0,55.7,0.1,83.6
										c-0.2,9-4.8,14.8-12.4,15.9c-7.3,0.7-12.2-4-12.4-12.7C586.7,581.8,586.6,554,586.5,526.3z M528.6,575.6
										c0.8,57.1,20.1,86.8,70.9,81.5c51.7-7.1,71-41.2,71.3-100.7c0.3-59.2-18.9-90.2-71.7-83.6
										C547.1,481,527.7,515.1,528.6,575.6z"/>
									<path class="st4" d="M822,525.9c-20.6,3.9-41.3,7.7-62,11.3c-0.1,11.7-0.3,23.4-0.5,35.1c4.1-0.8,8.3-1.5,12.4-2.3
										c-0.1,3.3-0.1,6.7-0.2,10c-0.4,9.7-5.4,16-13.5,17.7c-10,1.8-13.9-4.2-13.9-15.5c0.4-25.4,0.7-50.8,0.8-76.3
										c0.2-10,3.4-18.6,12.5-20.3c7.1-1,14.3,0.7,14.4,10.8c0,3.6,0,7.1,0,10.6c16.9-2.8,33.8-5.7,50.7-8.7
										c-1.3-42.4-33.1-52.6-63.6-48.6c-43.3,7.1-70.4,33.4-71.5,86.2c-0.1,14.8-0.2,29.5-0.3,44.2c0.4,38.6,19.4,60.5,52.7,55
										c21.2-4.3,40.6-13.9,47.7-38.5c0.1,0,0.2-0.1,0.4-0.1c1.6,7.6,3.2,15.2,4.7,22.8c9.1-2,18.3-4,27.4-6.1
										C821.1,584.3,821.7,555.2,822,525.9z"/>
									<path class="st4" d="M839.7,608.8c13.7-3.4,27.4-6.9,41-10.6c0.6-17.1,1.1-34.2,1.4-51.4c-13.6,3.2-27.3,6.3-40.9,9.3
										C840.8,573.7,840.3,591.3,839.7,608.8z M880.2,529.9c2.5-31,4.5-62.1,5.9-93.3c-16.6,2.5-33.2,4.9-49.8,7.4
										c2.9,31.3,5.4,62.5,7.5,93.8C855.9,535.2,868.1,532.6,880.2,529.9z"/>
									<ellipse class="st14" cx="932.9" cy="608.4" rx="24" ry="21.4"/>
									<text transform="matrix(0.9092 0 0 1 923.6865 622.628)" class="st15 st16">R</text>
									<text transform="matrix(0.9092 0 0 1 923.6865 622.628)" class="st17 st15 st16">R</text>
								</g>
							</g>
						</g>
					</g>
				</g>
			</g>
		</g>
	</g>
</g>
</svg>
