<?xml version="1.0" encoding="utf-8"?>
<!-- Generator: Adobe Illustrator 20.1.0, SVG Export Plug-In . SVG Version: 6.00 Build 0)  -->
<svg version="1.1" id="Capa_1" xmlns="http://www.w3.org/2000/svg" xmlns:xlink="http://www.w3.org/1999/xlink" x="0px" y="0px"
	 viewBox="0 0 50.5 50.5" style="enable-background:new 0 0 50.5 50.5;" xml:space="preserve">
<g>
	<path d="M25.3,0C21,0,16.9,1.1,13.2,3.1c-0.5,0.3-0.7,0.9-0.4,1.4s0.9,0.7,1.4,0.4C17.5,3,21.4,2,25.3,2
		c12.8,0,23.3,10.4,23.3,23.3S38.1,48.5,25.3,48.5S2,38.1,2,25.2C2,19,4.5,13.1,8.9,8.7c0.4-0.4,0.4-1,0-1.4c-0.4-0.4-1-0.4-1.4,0
		C2.7,12.1,0,18.4,0,25.2c0,13.9,11.3,25.3,25.3,25.3s25.3-11.3,25.3-25.3S39.2,0,25.3,0z"/>
	<path d="M26.2,34c-0.5,0.3-0.6,0.9-0.2,1.4c0.2,0.3,0.5,0.4,0.8,0.4c0.2,0,0.4-0.1,0.6-0.2l13.6-9.6c0.3-0.2,0.4-0.5,0.4-0.8
		s-0.2-0.6-0.4-0.8l-13.6-9.6c-0.5-0.3-1.1-0.2-1.4,0.2c-0.3,0.5-0.2,1.1,0.2,1.4l12.4,8.8L26.2,34z"/>
	<path d="M13.1,29.8c0.6,0,1-0.4,1-1V17.6L25,25.2L12.6,34c-0.5,0.3-0.6,0.9-0.2,1.4c0.2,0.3,0.5,0.4,0.8,0.4c0.2,0,0.4-0.1,0.6-0.2
		l13.6-9.6c0.3-0.2,0.4-0.5,0.4-0.8s-0.2-0.6-0.4-0.8l-13.6-9.6c-0.3-0.2-0.7-0.2-1-0.1c-0.3,0.2-0.5,0.5-0.5,0.9v13.1
		C12.1,29.3,12.6,29.8,13.1,29.8z"/>
</g>
</svg>
