<?xml version="1.0" encoding="utf-8"?>
<!-- Generator: Adobe Illustrator 20.1.0, SVG Export Plug-In . SVG Version: 6.00 Build 0)  -->
<svg version="1.1" id="Layer_1" xmlns="http://www.w3.org/2000/svg" xmlns:xlink="http://www.w3.org/1999/xlink" x="0px" y="0px"
	 viewBox="0 0 512 512" style="enable-background:new 0 0 512 512;" xml:space="preserve">
<g>
	<g>
		<path d="M441.7,45.7C430.5,17.9,404,0,374.1,0c-37.5,0-68.5,28.6-72.4,65.2c-33.4,3.4-62,26.2-72.7,58.6
			c-16.4,50-55.9,89.5-105.5,105.7c-27.1,8.9-48,30.5-56,57.7c-1.2,4.3,1.2,8.8,5.5,10c0.8,0.2,1.5,0.3,2.3,0.3
			c3.5,0,6.7-2.3,7.8-5.8c6.4-22.1,23.4-39.6,45.5-46.9c54.5-17.9,97.8-61.2,115.8-116c8.4-25.6,30.6-43.8,56.7-47.4
			c-4.6,122.3-105.5,220.3-228.9,220.3c-35.5,0-65.7,25.4-71.7,60.3c-0.8,4.4,2.2,8.6,6.6,9.3c0.5,0.1,0.9,0.1,1.4,0.1
			c3.9,0,7.3-2.8,8-6.7c4.7-27.2,28.1-46.9,55.8-46.9c135.2,0,245.2-110,245.2-245.2c0-31.2,25.4-56.6,56.6-56.6
			c23.3,0,43.9,13.9,52.5,35.5c1.7,4.1,6.4,6.2,10.5,4.5C441.3,54.5,443.3,49.8,441.7,45.7z"/>
	</g>
</g>
<g>
	<g>
		<path d="M438.8,64.7c-40.1,0-72.8,32.6-72.8,72.8c0,126.3-102.8,229.1-229.1,229.1c-37.2,0-68,28.1-72.2,64.2
			c-24.5-3.2-44.2-22-48.3-46.9c-0.7-4.4-4.9-7.4-9.3-6.7c-4.4,0.7-7.4,4.9-6.7,9.3c5.4,32.8,31.7,57.2,64.1,60.5
			C68.5,483.4,99.5,512,137,512c50.5,0,99.6-9.9,145.8-29.5c44.6-18.9,84.7-45.9,119-80.2c34.4-34.4,61.4-74.4,80.2-119
			c19.6-46.2,29.5-95.3,29.5-145.8C511.6,97.3,478.9,64.7,438.8,64.7z M467.2,277c-18.1,42.7-43.9,81-76.8,113.9
			s-71.2,58.7-113.9,76.8c-44.2,18.7-91.2,28.2-139.5,28.2c-31.2,0-56.6-25.4-56.6-56.6c0-31.2,25.4-56.6,56.6-56.6
			c135.2,0,245.2-110,245.2-245.2c0-31.2,25.4-56.6,56.6-56.6s56.6,25.4,56.6,56.6C495.4,185.8,485.9,232.7,467.2,277z"/>
	</g>
</g>
<g>
	<g>
		<path d="M353.6,62.1c-4.5,0.1-8.1,3.7-8.1,7.9c0,1.9-0.4,3.7-1.1,5.4c-0.7,1.7-1.8,3.2-3.3,4.5c-3.2,2.8-5.6,5.9-7.3,9.2
			c-0.8,1.7-1.5,3.4-2,5.2c-0.6,1.8-1,3.5-1.1,5.3c-0.4,3.6,0,7.3,1.1,10.9c0.9,3.6,2.7,7.1,5.2,10.4c2.3,3.1,3.3,6.9,2.4,10.6
			c-0.8,3.7-3.1,6.8-6.4,8.8c-0.9,0.5-1.7,1.1-2.5,1.6c-0.8,0.6-1.7,1.2-2.4,1.8c-1.5,1.2-2.9,2.6-4.1,4c-1.2,1.4-2.2,3-3.1,4.6
			c-0.4,0.8-0.8,1.6-1.1,2.5c-0.4,0.8-0.7,1.7-1,2.5c-1.2,3.4-1.7,7-1.4,10.8c0.2,1.9,0.4,3.7,0.8,5.6c0.4,1.9,1.1,3.8,1.9,5.7
			c0.8,1.8,1.2,3.6,1.2,5.5c0,0.9-0.1,1.9-0.3,2.8c-0.2,0.9-0.5,1.8-1,2.6c-1.7,3.4-4.6,5.9-8.3,7c-3.9,1.2-7.6,2.9-10.5,5.1
			c-1.5,1.1-2.9,2.3-4.1,3.7c-0.6,0.7-1.2,1.4-1.7,2.1c-0.6,0.7-1.1,1.4-1.6,2.2c-2,3-3.3,6.4-3.9,10.1c-0.3,1.9-0.6,3.7-0.6,5.6
			c0,1.9,0.1,3.9,0.5,6c0.3,1.9,0.3,3.8-0.2,5.6c-0.2,0.9-0.5,1.8-0.9,2.6c-0.4,0.8-1,1.6-1.6,2.3c-2.5,2.9-6,4.6-9.7,4.7
			c-4,0.2-8,0.9-11.5,2.3c-1.7,0.7-3.4,1.6-4.9,2.6c-0.8,0.5-1.5,1-2.2,1.6c-0.7,0.6-1.4,1.1-2.1,1.7c-2.7,2.4-4.8,5.4-6.3,8.8
			c-0.4,0.9-0.7,1.8-1,2.7c-0.3,0.9-0.6,1.8-0.9,2.7c-0.5,1.9-0.9,3.8-1,5.9c-0.1,1.9-0.7,3.7-1.6,5.4c-0.4,0.8-1,1.6-1.5,2.3
			c-0.6,0.7-1.3,1.4-2,1.9c-3.1,2.2-6.9,3-10.6,2.2c-2-0.4-4-0.6-5.9-0.7c-2-0.1-3.9,0-5.8,0.3c-3.7,0.5-7.2,1.8-10.3,3.7
			c-3.1,1.8-6,4.1-8.3,7.1c-2.3,3-4.1,6.6-5.4,10.5c-1.1,3.6-3.7,6.5-7.1,8.2c-1.7,0.8-3.5,1.3-5.4,1.2c-1.9,0-3.7-0.4-5.5-1.2
			c-3.8-1.7-7.7-2.6-11.4-2.7c-0.9,0-1.9,0-2.8,0.1c-0.9,0-1.9,0.1-2.8,0.2c-1.8,0.2-3.6,0.7-5.4,1.3c-1.7,0.6-3.4,1.4-5,2.3
			c-1.6,0.9-3.1,2.1-4.5,3.3c-2.9,2.4-5.4,5.5-7.3,9.2c-0.9,1.7-2.1,3.2-3.5,4.4c-0.7,0.6-1.5,1.1-2.3,1.5c-0.8,0.4-1.7,0.7-2.6,0.9
			c-3.7,0.9-7.5,0.2-10.7-1.9c-1.7-1.1-3.5-2.1-5.3-2.8c-0.9-0.4-1.8-0.7-2.7-0.9c-0.9-0.3-1.9-0.6-2.8-0.8
			c-3.7-0.8-7.5-0.9-11.1-0.2c-1.8,0.3-3.6,0.9-5.3,1.6c-1.7,0.7-3.4,1.5-5,2.5c-3.2,2-6.1,4.7-8.6,8.1c-2.3,3.1-5.6,5.2-9.4,5.5
			c-4.3,0.4-7.4,4.4-6.9,8.8c0.4,4.4,4.3,7.7,8.8,7.2c4.1-0.3,7.9-1.8,11.3-3.8c3.4-2,6.4-4.8,8.8-8.1c1.2-1.6,2.6-2.9,4.2-3.9
			c1.6-1,3.3-1.7,5.1-2.1c3.6-0.7,7.4,0,10.8,2.3c1.7,1.2,3.5,2.2,5.3,2.9c1.8,0.7,3.8,1.2,5.7,1.5c3.9,0.6,8,0.5,12-0.5
			c2-0.4,3.9-1.2,5.7-2.2c1.8-0.9,3.5-2,5-3.3c3.1-2.5,5.7-5.6,7.5-9.2c1.8-3.6,4.8-6.2,8.2-7.4c1.7-0.6,3.6-0.9,5.5-0.8
			c1.9,0.1,3.8,0.6,5.6,1.4c3.7,1.6,7.7,2.5,11.7,2.5c2,0,4-0.2,6-0.6c0.5-0.1,1-0.2,1.5-0.3c0.5-0.1,1-0.3,1.5-0.5
			c1-0.3,1.9-0.7,2.9-1.2c3.8-1.8,7.1-4.2,9.7-7.2c1.4-1.4,2.5-3.2,3.4-5c0.9-1.8,1.7-3.7,2.3-5.7c1.1-3.9,3.6-6.8,6.8-8.7
			c3.1-1.9,7-2.6,10.9-1.7c8.1,2.1,16.3,0,23.2-4.8c0.9-0.6,1.7-1.3,2.4-2c0.7-0.7,1.5-1.5,2.1-2.3c1.3-1.6,2.5-3.2,3.5-5
			c1-1.8,1.8-3.6,2.3-5.5c0.6-1.9,0.9-4,1-6c0.2-4.1,1.9-7.6,4.6-10.1c0.7-0.6,1.4-1.1,2.2-1.7c0.8-0.5,1.6-1,2.4-1.3
			c1.7-0.7,3.6-1.1,5.6-1.1c2,0,4.1-0.2,6.1-0.7c2-0.5,4-1,5.7-2c3.6-1.8,6.9-4.4,9.6-7.6c0.7-0.8,1.3-1.6,1.9-2.5
			c0.5-0.9,1-1.8,1.5-2.7c0.9-1.9,1.6-3.8,2.1-5.7c1-3.9,1.3-7.9,0.4-12c-0.8-4,0-7.8,2-10.9c0.5-0.8,1.1-1.5,1.7-2.1
			c0.6-0.7,1.3-1.3,2-1.9c1.5-1.1,3.2-2,5.2-2.5c2-0.5,3.9-1.3,5.7-2.2c1.8-0.9,3.6-2,5.1-3.3c3-2.6,5.6-6,7.4-9.8
			c0.5-0.9,0.9-1.9,1.2-2.9c0.3-1,0.6-2,0.8-3c0.4-2,0.6-4.1,0.6-6.1c0-4.1-0.7-8-2.6-11.7c-1.8-3.7-1.9-7.6-0.7-11.1
			c0.3-0.9,0.7-1.7,1.2-2.5c0.4-0.8,0.9-1.6,1.5-2.3c1.2-1.5,2.6-2.7,4.4-3.7c3.6-2,6.8-4.6,9.2-7.9c2.3-3.3,4-7.1,4.9-11.2
			c1-4.1,0.7-8.3-0.1-12.2c-0.9-3.9-2.6-7.6-5.1-10.8c-2.6-3.2-3.6-7-3.2-10.6c0.2-1.8,0.7-3.6,1.6-5.3c0.8-1.7,2-3.2,3.5-4.5
			c3.1-2.7,5.5-5.9,7.2-9.6c0.4-0.9,0.8-1.8,1.2-2.8c0.3-1,0.5-1.9,0.7-2.9c0.4-2,0.6-4,0.6-6.1C361.7,65.6,358.1,62,353.6,62.1z"/>
	</g>
</g>
</svg>
