<?xml version="1.0" encoding="utf-8"?>
<!-- Generator: Adobe Illustrator 20.1.0, SVG Export Plug-In . SVG Version: 6.00 Build 0)  -->
<svg version="1.1" id="Layer_1" xmlns="http://www.w3.org/2000/svg" xmlns:xlink="http://www.w3.org/1999/xlink" x="0px" y="0px"
	 viewBox="0 0 512 463.3" style="enable-background:new 0 0 512 463.3;" xml:space="preserve">
<g>
	<g>
		<path d="M280.5,116.7c9.5-6.7,18.3-17.8,20.6-36.1c0.4-3.1-0.9-6.1-3.3-8c-2.4-1.9-5.7-2.3-8.5-1.2c-0.1,0-10.4,4.2-23.3,6.9
			c-4.7,1-7.7,5.6-6.7,10.3c1,4.7,5.6,7.7,10.3,6.7c3.5-0.7,6.7-1.5,9.7-2.4c-3.6,6.3-9.2,10.9-16.9,13.9
			c-10.1,3.9-20.1,3.4-20.2,3.4c-2.8-0.2-5.5,0.9-7.3,3.1c-1.8,2.1-2.4,5-1.8,7.7c4.8,18.9,16.9,33.5,27.6,43.2
			c-40.6-0.1-55.2-21.2-55.8-22.2c-1.8-2.8-4.9-4.3-8.2-4c-3.3,0.3-6.1,2.5-7.2,5.6c-4.3,11.5-11.6,20.8-21.7,27.5
			c-4,2.7-5.1,8-2.4,12c1.7,2.5,4.4,3.9,7.2,3.9c1.7,0,3.3-0.5,4.8-1.5c9.4-6.3,17-14.2,22.6-23.7c12.8,10.9,39.3,25.2,85.8,17.7
			c3.7-0.6,6.5-3.4,7.2-7.1c0.6-3.6-1.1-7.3-4.4-9.1c-0.3-0.1-24.1-13.5-34.9-36.5c2.8-0.4,5.9-1,9.2-1.9
			c37.8,28.4,60.3,73.1,60.3,120.4c0,4.8,3.9,8.7,8.7,8.7s8.7-3.9,8.7-8.7C340.5,195.5,318.3,148.4,280.5,116.7z"/>
	</g>
</g>
<g>
	<g>
		<path d="M494.5,280.7c-12.5-7.2-28.2-6.8-35.8,0.7c-3.4,3.4-3.4,8.9,0,12.3c3.4,3.4,8.8,3.4,12.2,0.1c1.9-1.3,9.8-1.5,16.3,2.9
			c7,4.7,9.1,12.6,6.3,23.5c-2.6,10-11.1,16.2-21.1,20c-7.3-37.1-35.6-66.2-72.7-74.6c-4.7-1-9.3,1.9-10.4,6.6
			c-1,4.7,1.9,9.3,6.6,10.4c30.6,6.9,54,31.2,59.7,62c-8.2,1.3-15.8,1.6-20,1.6c-0.1-6.2,0.7-10.2,0.8-10.4c1-4.7-1.9-9.3-6.6-10.3
			c-4.7-1-9.3,1.9-10.4,6.6c-0.2,1-5.4,25.1,7.6,51.5c1.5,3.1,4.6,4.8,7.8,4.8c1.3,0,2.6-0.3,3.8-0.9c4.3-2.1,6.1-7.3,3.9-11.6
			c-2.1-4.2-3.6-8.4-4.6-12.3c4.8-0.1,11.7-0.4,19.3-1.6c-0.3,16.3-5.6,32.1-15.7,45.4c-13.2,17.5-32.5,28.4-54.3,30.8
			c-99.5,10.7-200.4,10.7-299.9,0c-21.8-2.3-41.1-13.3-54.3-30.8c-13.1-17.4-18.3-38.8-14.5-60.3l0.3-1.7
			c7-40.4,44.6-68.6,85.3-64.2c88.3,9.5,177.9,9.5,266.2,0c4.8-0.5,8.2-4.8,7.7-9.6c-0.5-4.8-4.8-8.2-9.6-7.7
			c-87.1,9.4-175.4,9.4-262.5,0c-29.2-3.1-57.1,7.4-76.8,26.6c-4.6-14.5-6.9-29.6-6.9-45.1c0-23.3,5.2-45.5,15.3-66.2
			c2.1-4.3,0.3-9.5-4-11.6c-4.3-2.1-9.5-0.3-11.6,4C10.8,194.5,5,219.3,5,245.3c0,20.9,3.8,41.3,11.3,60.6
			c-7.1,10.7-12.2,22.9-14.5,36.3l-0.3,1.7c-4.6,26.3,1.7,52.4,17.8,73.7c15.9,21.1,40,34.8,66.3,37.6c50.4,5.4,101.1,8.1,151.8,8.1
			s101.4-2.7,151.8-8.1c26.3-2.8,50.4-16.5,66.3-37.6c13.2-17.5,19.8-38.4,19.2-59.9c15.8-5.2,31-14.9,35.8-33.4
			C515.2,305.4,509.3,289.1,494.5,280.7z"/>
	</g>
</g>
<g>
	<g>
		<path d="M92.6,327.8c-2-3.1-6-4.5-9.5-3.5c-3.4,1-6,4-6.3,7.5c-0.8,7.9,9.2,12.6,14.8,7C94.5,335.9,94.9,331.2,92.6,327.8z"/>
	</g>
</g>
<g>
	<g>
		<path d="M121.6,376.4c-1.9-2.8-5.4-4.3-8.7-3.7c-3.7,0.7-6.6,3.7-7.1,7.5c-1,7.8,8.5,12.7,14.4,7.6
			C123.3,384.9,123.9,380,121.6,376.4z"/>
	</g>
</g>
<g>
	<g>
		<path d="M187.5,307c-4.3-6.5-14.7-4.1-15.8,3.5c-0.5,3.7,1.4,7.4,4.8,9.1c3.2,1.5,7.1,1,9.7-1.4
			C189.3,315.3,189.8,310.5,187.5,307z"/>
	</g>
</g>
<g>
	<g>
		<path d="M213,418c-2.2-3.3-6.5-4.7-10.1-3.3c-3.3,1.2-5.6,4.3-5.8,7.8c-0.3,7.7,9.4,12,14.8,6.5C214.8,426.1,215.2,421.4,213,418z
			"/>
	</g>
</g>
<g>
	<g>
		<path d="M268.5,354.4c-4.3-6.5-14.6-4.1-15.8,3.5c-1.2,7.9,8.6,13.1,14.5,7.7C270.3,362.7,270.8,357.9,268.5,354.4z"/>
	</g>
</g>
<g>
	<g>
		<path d="M306.2,397.5c-3.5-1.5-7.7-0.4-10,2.5c-2.3,2.8-2.6,6.7-0.7,9.9c1.8,3.1,5.6,4.9,9.2,4.1c3.5-0.7,6.2-3.5,6.9-7
			C312.2,403,309.9,399,306.2,397.5z"/>
	</g>
</g>
<g>
	<g>
		<path d="M382.8,300.9c-3.6,2.2-5.1,6.8-3.5,10.7c1.4,3.4,5,5.7,8.7,5.3c3.6-0.3,6.7-2.9,7.6-6.3
			C397.8,303.2,389.4,296.9,382.8,300.9z"/>
	</g>
</g>
<g>
	<g>
		<path d="M376.1,371.8c-2.1-3.1-6.1-4.6-9.7-3.5c-3.5,1.1-6,4.2-6.2,7.9c-0.4,7.7,9.2,12,14.7,6.7
			C377.9,379.9,378.4,375.2,376.1,371.8z"/>
	</g>
</g>
<g>
	<g>
		<path d="M243.9,80.5c-7.5-0.3-14.1-5.6-16-12.8c-4.8-18-18.2-26.5-18.7-26.9c-2.7-1.7-6.1-1.8-8.8-0.2c-2.8,1.5-4.5,4.4-4.5,7.6
			c0,4.2-4.4,10.2-9.9,15.9c-6.5-19.5-17.9-41.8-37.7-61.6c-3.4-3.4-8.9-3.4-12.3,0s-3.4,8.9,0,12.3c18.5,18.5,28.8,39.9,34.4,58.1
			c-14.2-7.6-24.2-26.9-27.1-34.7c-1-2.8-3.4-4.8-6.3-5.4c-2.9-0.6-5.9,0.3-8,2.3c-14.7,14.7-13.1,39.4-10.9,52.2
			c-8.7,1.8-25.1,2.5-42.6-10.3c-2.7-2-6.2-2.2-9.2-0.7c-2.9,1.6-4.7,4.7-4.6,8c0,0.8,0.6,14.3,7.9,28.6
			c-13.5,10.5-25.2,22.9-34.9,37c-2.7,3.9-1.7,9.3,2.2,12.1c1.5,1,3.2,1.5,4.9,1.5c2.8,0,5.5-1.3,7.1-3.7
			c8.5-12.3,18.7-23.2,30.4-32.5c1.8,2,3.8,3.9,6,5.8c12.4,10.4,28.5,15.5,48,15.1c-5.1,9.1-15.1,22.7-34.7,37.5
			c-2.8,2.1-4.1,5.7-3.1,9.2c0.9,3.4,3.8,5.9,7.3,6.4c0.4,0.1,5.3,0.7,12.9,0.7c8.8,0,21.1-0.8,34-4.3c4.6-1.2,7.4-6,6.1-10.6
			c-1.2-4.6-6-7.4-10.6-6.1c-6.3,1.7-12.5,2.6-18,3.1c24.1-23.9,27.9-43,28.1-44c0.5-2.7-0.3-5.6-2.3-7.6c-1.9-2-4.7-3-7.5-2.6
			c-21.1,3-37.5-0.4-48.9-9.9c-6.7-5.6-10.8-12.6-13.4-19c26.3,10.2,47.6,0.7,48.7,0.2c3.9-1.8,5.9-6.1,4.7-10.2
			c-0.1-0.2-4.5-16.9-1.6-30.7c7.5,12.5,20.4,28.3,38.8,32.3c0.5,0.1,0.9,0.2,1.4,0.2c2.3,13.2,2.2,21.9,2.2,22.2
			c-0.1,4.8,3.6,8.8,8.4,8.9c0.1,0,0.2,0,0.3,0c4.7,0,8.5-3.7,8.7-8.4c0-1.2,0.3-14.1-3.6-32.3c5.7-4.9,12.3-11.4,16.8-18.6
			c1.3,2.2,2.4,4.8,3.2,7.8c3.9,14.7,16.8,25,32.1,25.7c4.8,0.2,8.8-3.5,9-8.3C252.4,84.8,248.7,80.7,243.9,80.5z"/>
	</g>
</g>
</svg>
